
<svg xmlns="http://www.w3.org/2000/svg" xmlns:xlink="http://www.w3.org/1999/xlink" width="192" zoomAndPan="magnify" viewBox="0 0 144 143.999998" height="192" preserveAspectRatio="xMidYMid meet" version="1.0"><defs><clipPath id="a1c757093d"><path d="M 18.246094 20.597656 L 125.496094 20.597656 L 125.496094 123.347656 L 18.246094 123.347656 Z M 18.246094 20.597656 " clip-rule="nonzero"/></clipPath></defs><g clip-path="url(#a1c757093d)"><path fill="#ffffff" d="M 58.171875 43.660156 L 54.363281 29.460938 C 54.121094 28.566406 54.652344 27.644531 55.550781 27.402344 C 56.449219 27.164062 57.371094 27.695312 57.609375 28.589844 L 61.417969 42.789062 C 61.660156 43.6875 61.128906 44.609375 60.230469 44.851562 C 60.085938 44.890625 59.9375 44.90625 59.792969 44.90625 C 59.050781 44.910156 58.371094 44.414062 58.171875 43.660156 Z M 92.367188 75.820312 C 92.367188 74.890625 91.617188 74.140625 90.6875 74.140625 C 89.757812 74.140625 89.007812 74.890625 89.007812 75.820312 C 89.007812 79.109375 86.332031 81.785156 83.046875 81.785156 C 82.117188 81.785156 81.363281 82.539062 81.363281 83.46875 C 81.363281 84.398438 82.117188 85.148438 83.046875 85.148438 C 84.957031 85.148438 86.730469 84.570312 88.210938 83.582031 C 90.082031 86.433594 89.765625 90.308594 87.261719 92.8125 C 86.605469 93.46875 86.605469 94.535156 87.261719 95.191406 C 87.589844 95.519531 88.019531 95.683594 88.449219 95.683594 C 88.878906 95.683594 89.308594 95.519531 89.640625 95.191406 C 93.445312 91.382812 93.78125 85.402344 90.652344 81.207031 C 91.730469 79.683594 92.367188 77.828125 92.367188 75.820312 Z M 73.675781 41.621094 L 73.675781 26.921875 C 73.675781 25.992188 72.921875 25.238281 71.996094 25.238281 C 71.066406 25.238281 70.3125 25.992188 70.3125 26.921875 L 70.3125 41.621094 C 70.3125 42.546875 71.066406 43.300781 71.996094 43.300781 C 72.925781 43.300781 73.675781 42.546875 73.675781 41.621094 Z M 54.976562 75.820312 C 54.976562 74.890625 54.226562 74.140625 53.296875 74.140625 C 52.367188 74.140625 51.617188 74.890625 51.617188 75.820312 C 51.617188 77.828125 52.253906 79.683594 53.332031 81.207031 C 50.203125 85.402344 50.539062 91.382812 54.34375 95.191406 C 54.671875 95.519531 55.105469 95.683594 55.535156 95.683594 C 55.964844 95.683594 56.394531 95.519531 56.722656 95.191406 C 57.378906 94.535156 57.378906 93.46875 56.722656 92.8125 C 54.21875 90.308594 53.902344 86.433594 55.773438 83.582031 C 57.25 84.570312 59.027344 85.148438 60.9375 85.148438 C 61.867188 85.148438 62.617188 84.398438 62.617188 83.46875 C 62.617188 82.539062 61.867188 81.785156 60.9375 81.785156 C 57.652344 81.785156 54.976562 79.109375 54.976562 75.820312 Z M 38.066406 61.253906 C 38.355469 61.253906 38.640625 61.183594 38.902344 61.035156 C 39.566406 60.65625 39.890625 59.878906 39.691406 59.140625 L 35.691406 44.207031 L 42.386719 42.417969 C 42.964844 42.261719 43.417969 41.8125 43.574219 41.234375 C 43.734375 40.65625 43.570312 40.039062 43.152344 39.613281 L 25.011719 21.175781 C 24.476562 20.632812 23.644531 20.515625 22.980469 20.898438 C 22.316406 21.273438 21.992188 22.054688 22.191406 22.789062 L 26.1875 37.722656 L 19.492188 39.511719 C 18.917969 39.667969 18.464844 40.117188 18.304688 40.695312 C 18.148438 41.273438 18.308594 41.890625 18.730469 42.316406 L 36.871094 60.753906 C 37.195312 61.082031 37.628906 61.253906 38.066406 61.253906 Z M 106.269531 70.320312 C 106.269531 71.542969 106.082031 72.757812 105.71875 73.910156 C 109.867188 75.855469 112.75 80.070312 112.75 84.949219 C 112.75 90.003906 109.660156 94.425781 105.128906 96.25 C 106.015625 97.929688 106.503906 99.835938 106.503906 101.839844 C 106.503906 108.421875 101.148438 113.773438 94.566406 113.773438 C 94.359375 113.773438 94.152344 113.769531 93.945312 113.757812 C 92.839844 119.207031 88.015625 123.320312 82.25 123.320312 C 77.894531 123.320312 74.078125 120.972656 71.996094 117.480469 C 69.910156 120.972656 66.089844 123.320312 61.734375 123.320312 C 55.96875 123.320312 51.144531 119.207031 50.039062 113.757812 C 49.832031 113.769531 49.625 113.773438 49.417969 113.773438 C 42.835938 113.773438 37.480469 108.421875 37.480469 101.839844 C 37.480469 99.835938 37.96875 97.929688 38.855469 96.25 C 34.320312 94.425781 31.234375 90.003906 31.234375 84.949219 C 31.234375 80.070312 34.117188 75.851562 38.269531 73.910156 C 37.902344 72.75 37.714844 71.535156 37.714844 70.320312 C 37.714844 63.742188 43.066406 58.386719 49.648438 58.386719 C 49.871094 58.386719 50.09375 58.394531 50.3125 58.40625 C 51.8125 53.421875 56.386719 49.949219 61.734375 49.949219 C 66.089844 49.949219 69.910156 52.292969 71.996094 55.785156 C 74.078125 52.292969 77.894531 49.949219 82.25 49.949219 C 87.597656 49.949219 92.171875 53.417969 93.671875 58.40625 C 93.890625 58.394531 94.113281 58.386719 94.335938 58.386719 C 100.917969 58.386719 106.269531 63.742188 106.269531 70.320312 Z M 70.3125 61.882812 C 70.3125 57.15625 66.464844 53.3125 61.734375 53.3125 C 58.007812 53.3125 54.804688 55.65625 53.636719 59.0625 C 54.792969 59.472656 55.882812 60.058594 56.875 60.820312 C 57.613281 61.386719 57.753906 62.441406 57.191406 63.179688 C 56.628906 63.914062 55.574219 64.058594 54.835938 63.492188 C 53.34375 62.351562 51.550781 61.75 49.648438 61.75 C 44.921875 61.75 41.074219 65.59375 41.074219 70.320312 C 41.074219 71.203125 41.214844 72.082031 41.484375 72.921875 C 42.113281 72.824219 42.753906 72.769531 43.410156 72.769531 C 44.5625 72.769531 45.703125 72.929688 46.804688 73.246094 C 47.695312 73.503906 48.210938 74.433594 47.957031 75.324219 C 47.699219 76.21875 46.769531 76.734375 45.875 76.480469 C 45.078125 76.25 44.246094 76.132812 43.410156 76.132812 C 38.550781 76.132812 34.59375 80.089844 34.59375 84.949219 C 34.59375 88.910156 37.214844 92.335938 40.941406 93.417969 C 42.085938 92.269531 43.480469 91.34375 45.066406 90.722656 C 45.929688 90.382812 46.90625 90.808594 47.246094 91.675781 C 47.582031 92.539062 47.15625 93.515625 46.292969 93.855469 C 44.96875 94.371094 43.835938 95.183594 42.949219 96.195312 C 42.875 96.308594 42.789062 96.410156 42.695312 96.503906 C 41.519531 97.980469 40.84375 99.84375 40.84375 101.839844 C 40.84375 106.566406 44.691406 110.414062 49.417969 110.414062 C 49.558594 110.414062 49.699219 110.410156 49.839844 110.402344 C 49.992188 108.570312 50.5625 106.796875 51.519531 105.214844 C 51.835938 104.691406 52.390625 104.402344 52.960938 104.402344 C 53.253906 104.402344 53.554688 104.480469 53.828125 104.644531 C 54.621094 105.125 54.875 106.15625 54.398438 106.953125 C 53.589844 108.289062 53.164062 109.820312 53.164062 111.378906 C 53.164062 116.109375 57.007812 119.957031 61.734375 119.957031 C 66.464844 119.957031 70.3125 116.109375 70.3125 111.378906 L 70.3125 105.753906 C 70.3125 101.824219 67.113281 98.628906 63.179688 98.628906 C 62.253906 98.628906 61.5 97.875 61.5 96.949219 C 61.5 96.019531 62.253906 95.265625 63.179688 95.265625 C 65.933594 95.265625 68.441406 96.332031 70.3125 98.070312 L 70.3125 79.511719 C 70.3125 75.582031 67.113281 72.382812 63.179688 72.382812 C 62.253906 72.382812 61.5 71.632812 61.5 70.703125 C 61.5 69.773438 62.253906 69.023438 63.179688 69.023438 C 65.933594 69.023438 68.441406 70.085938 70.3125 71.824219 Z M 100.574219 76.132812 C 99.734375 76.132812 98.910156 76.25 98.117188 76.476562 C 97.222656 76.734375 96.292969 76.222656 96.035156 75.328125 C 95.777344 74.4375 96.292969 73.503906 97.183594 73.246094 C 98.28125 72.929688 99.421875 72.769531 100.574219 72.769531 C 101.230469 72.769531 101.878906 72.824219 102.507812 72.925781 C 102.773438 72.09375 102.910156 71.222656 102.910156 70.324219 C 102.910156 65.59375 99.0625 61.75 94.335938 61.75 C 92.441406 61.75 90.644531 62.351562 89.148438 63.496094 C 88.410156 64.058594 87.355469 63.914062 86.792969 63.175781 C 86.230469 62.4375 86.371094 61.382812 87.109375 60.820312 C 88.105469 60.0625 89.195312 59.472656 90.351562 59.066406 C 89.179688 55.65625 85.976562 53.3125 82.25 53.3125 C 77.523438 53.3125 73.675781 57.15625 73.675781 61.882812 L 73.675781 71.824219 C 75.550781 70.085938 78.054688 69.023438 80.804688 69.023438 C 81.730469 69.023438 82.484375 69.773438 82.484375 70.703125 C 82.484375 71.632812 81.730469 72.382812 80.804688 72.382812 C 76.875 72.382812 73.675781 75.582031 73.675781 79.511719 L 73.675781 98.070312 C 75.550781 96.332031 78.054688 95.265625 80.804688 95.265625 C 81.730469 95.265625 82.484375 96.019531 82.484375 96.949219 C 82.484375 97.875 81.730469 98.628906 80.804688 98.628906 C 76.875 98.628906 73.675781 101.824219 73.675781 105.753906 L 73.675781 111.378906 C 73.675781 116.109375 77.523438 119.957031 82.25 119.957031 C 86.976562 119.957031 90.820312 116.109375 90.820312 111.378906 C 90.820312 109.8125 90.398438 108.28125 89.59375 106.953125 C 89.113281 106.15625 89.371094 105.125 90.164062 104.644531 C 90.960938 104.164062 91.992188 104.417969 92.472656 105.214844 C 93.425781 106.789062 93.996094 108.566406 94.144531 110.402344 C 94.285156 110.410156 94.425781 110.414062 94.566406 110.414062 C 99.296875 110.414062 103.140625 106.566406 103.140625 101.839844 C 103.140625 99.84375 102.46875 97.980469 101.292969 96.503906 C 101.195312 96.410156 101.109375 96.308594 101.035156 96.195312 C 100.148438 95.183594 99.015625 94.371094 97.691406 93.855469 C 96.828125 93.515625 96.402344 92.539062 96.738281 91.675781 C 97.078125 90.808594 98.054688 90.382812 98.917969 90.722656 C 100.503906 91.34375 101.898438 92.269531 103.042969 93.417969 C 106.769531 92.335938 109.390625 88.910156 109.390625 84.949219 C 109.390625 80.089844 105.433594 76.132812 100.574219 76.132812 Z M 84.191406 44.910156 C 84.933594 44.910156 85.613281 44.414062 85.8125 43.664062 L 89.621094 29.460938 C 89.863281 28.566406 89.332031 27.644531 88.433594 27.402344 C 87.535156 27.164062 86.613281 27.695312 86.375 28.59375 L 82.566406 42.792969 C 82.324219 43.6875 82.855469 44.609375 83.753906 44.851562 C 83.898438 44.890625 84.046875 44.910156 84.191406 44.910156 Z M 124.496094 39.511719 L 117.796875 37.722656 L 121.800781 22.792969 C 121.996094 22.054688 121.671875 21.277344 121.011719 20.898438 C 120.347656 20.515625 119.511719 20.632812 118.976562 21.175781 L 100.832031 39.613281 C 100.414062 40.039062 100.25 40.65625 100.410156 41.234375 C 100.566406 41.8125 101.019531 42.261719 101.597656 42.417969 L 108.292969 44.207031 L 104.292969 59.140625 C 104.09375 59.875 104.417969 60.652344 105.082031 61.035156 C 105.34375 61.183594 105.628906 61.253906 105.917969 61.253906 C 106.355469 61.253906 106.789062 61.082031 107.113281 60.753906 L 125.261719 42.316406 C 125.679688 41.890625 125.839844 41.273438 125.683594 40.695312 C 125.527344 40.117188 125.074219 39.667969 124.496094 39.511719 Z M 124.496094 39.511719 " fill-opacity="1" fill-rule="nonzero"/></g></svg>
