<svg xmlns="http://www.w3.org/2000/svg" xmlns:xlink="http://www.w3.org/1999/xlink" width="192" zoomAndPan="magnify" viewBox="0 0 144 143.999998" height="192" preserveAspectRatio="xMidYMid meet" version="1.0"><defs><clipPath id="833308a2ac"><path d="M 16.269531 86 L 128 86 L 128 109 L 16.269531 109 Z M 16.269531 86 " clip-rule="nonzero"/></clipPath><clipPath id="9eab34a51a"><path d="M 16.269531 106 L 128 106 L 128 117 L 16.269531 117 Z M 16.269531 106 " clip-rule="nonzero"/></clipPath><clipPath id="d3a1c53fad"><path d="M 28 27.066406 L 116 27.066406 L 116 89 L 28 89 Z M 28 27.066406 " clip-rule="nonzero"/></clipPath></defs><g clip-path="url(#833308a2ac)"><path fill="#ffffff" d="M 126.597656 108.964844 L 17.421875 108.964844 C 17.027344 108.964844 16.636719 108.769531 16.441406 108.445312 C 16.246094 108.117188 16.246094 107.660156 16.441406 107.335938 L 28.382812 86.648438 C 28.578125 86.320312 28.90625 86.125 29.296875 86.125 L 114.652344 86.125 C 115.046875 86.125 115.4375 86.320312 115.632812 86.648438 L 127.511719 107.335938 C 127.707031 107.660156 127.707031 108.117188 127.511719 108.445312 C 127.3125 108.769531 126.988281 108.964844 126.597656 108.964844 Z M 19.3125 106.8125 L 124.703125 106.8125 L 114.066406 88.277344 L 29.949219 88.277344 Z M 19.3125 106.8125 " fill-opacity="1" fill-rule="evenodd"/></g><path fill="#ffffff" d="M 117.199219 103.550781 L 26.816406 103.550781 C 26.425781 103.550781 26.035156 103.289062 25.839844 102.960938 C 25.644531 102.636719 25.644531 102.246094 25.839844 101.917969 L 31.515625 92.0625 C 31.710938 91.738281 32.039062 91.542969 32.429688 91.542969 L 111.523438 91.542969 C 111.914062 91.542969 112.304688 91.738281 112.5 92.0625 L 118.113281 101.917969 C 118.308594 102.246094 118.308594 102.636719 118.113281 102.960938 C 117.917969 103.289062 117.589844 103.550781 117.199219 103.550781 Z M 28.710938 101.332031 L 115.308594 101.332031 L 110.933594 93.695312 L 33.082031 93.695312 Z M 28.710938 101.332031 " fill-opacity="1" fill-rule="evenodd"/><path fill="#ffffff" d="M 114.394531 98.65625 L 29.625 98.65625 C 29.035156 98.65625 28.515625 98.132812 28.515625 97.546875 C 28.515625 96.957031 29.035156 96.4375 29.625 96.4375 L 114.394531 96.4375 C 114.980469 96.4375 115.4375 96.957031 115.4375 97.546875 C 115.4375 98.132812 114.980469 98.65625 114.394531 98.65625 Z M 114.394531 98.65625 " fill-opacity="1" fill-rule="evenodd"/><g clip-path="url(#9eab34a51a)"><path fill="#ffffff" d="M 126.597656 116.925781 L 17.421875 116.925781 C 16.832031 116.925781 16.3125 116.40625 16.3125 115.816406 L 16.3125 107.855469 C 16.3125 107.269531 16.832031 106.8125 17.421875 106.8125 L 126.597656 106.8125 C 127.183594 106.8125 127.707031 107.269531 127.707031 107.855469 L 127.707031 115.816406 C 127.707031 116.40625 127.183594 116.925781 126.597656 116.925781 Z M 18.464844 114.773438 L 125.488281 114.773438 L 125.488281 108.964844 L 18.464844 108.964844 Z M 18.464844 114.773438 " fill-opacity="1" fill-rule="evenodd"/></g><g clip-path="url(#d3a1c53fad)"><path fill="#ffffff" d="M 111.523438 88.277344 L 32.429688 88.277344 C 30.144531 88.277344 28.253906 86.386719 28.253906 84.039062 L 28.253906 31.246094 C 28.253906 28.960938 30.144531 27.066406 32.429688 27.066406 L 111.585938 27.066406 C 113.871094 27.066406 115.761719 28.960938 115.761719 31.246094 L 115.761719 84.039062 C 115.761719 86.386719 113.871094 88.277344 111.523438 88.277344 Z M 32.429688 29.222656 C 31.320312 29.222656 30.40625 30.136719 30.40625 31.246094 L 30.40625 84.039062 C 30.40625 85.210938 31.320312 86.125 32.429688 86.125 L 111.585938 86.125 C 112.695312 86.125 113.609375 85.210938 113.609375 84.039062 L 113.609375 31.246094 C 113.609375 30.136719 112.695312 29.222656 111.585938 29.222656 Z M 32.429688 29.222656 " fill-opacity="1" fill-rule="evenodd"/></g><path fill="#ffffff" d="M 109.238281 78.492188 L 34.777344 78.492188 C 34.125 78.492188 33.667969 78.035156 33.667969 77.382812 L 33.667969 33.59375 C 33.667969 33.007812 34.125 32.484375 34.777344 32.484375 L 109.238281 32.484375 C 109.824219 32.484375 110.347656 33.007812 110.347656 33.59375 L 110.347656 77.445312 C 110.347656 78.035156 109.824219 78.492188 109.238281 78.492188 Z M 35.824219 76.335938 L 108.195312 76.335938 L 108.195312 34.636719 L 35.824219 34.636719 Z M 35.824219 76.335938 " fill-opacity="1" fill-rule="evenodd"/><path fill="#ffffff" d="M 110.28125 103.550781 L 33.734375 103.550781 C 33.34375 103.550781 33.015625 103.355469 32.820312 103.027344 C 32.625 102.699219 32.558594 102.308594 32.757812 101.984375 L 37.519531 92.128906 C 37.714844 91.804688 38.105469 91.542969 38.5 91.542969 L 105.453125 91.542969 C 105.910156 91.542969 106.300781 91.804688 106.433594 92.128906 L 111.261719 101.984375 C 111.390625 102.308594 111.390625 102.699219 111.195312 103.027344 C 111 103.355469 110.671875 103.550781 110.28125 103.550781 Z M 35.496094 101.332031 L 108.519531 101.332031 L 104.800781 93.695312 L 39.214844 93.695312 Z M 35.496094 101.332031 " fill-opacity="1" fill-rule="evenodd"/><path fill="#ffffff" d="M 102.972656 103.550781 L 41.042969 103.550781 C 40.652344 103.550781 40.324219 103.355469 40.128906 103.027344 C 39.933594 102.765625 39.871094 102.375 40 102.046875 L 43.914062 92.195312 C 44.046875 91.804688 44.4375 91.542969 44.894531 91.542969 L 99.121094 91.542969 C 99.515625 91.542969 99.972656 91.804688 100.101562 92.195312 L 103.953125 102.046875 C 104.148438 102.375 104.082031 102.765625 103.886719 103.027344 C 103.691406 103.355469 103.300781 103.550781 102.972656 103.550781 Z M 42.609375 101.332031 L 101.339844 101.332031 L 98.339844 93.695312 L 45.613281 93.695312 Z M 42.609375 101.332031 " fill-opacity="1" fill-rule="evenodd"/><path fill="#ffffff" d="M 95.664062 103.550781 L 48.351562 103.550781 C 47.960938 103.550781 47.636719 103.355469 47.4375 103.09375 C 47.242188 102.832031 47.179688 102.441406 47.308594 102.113281 L 50.246094 92.324219 C 50.375 91.867188 50.832031 91.542969 51.289062 91.542969 L 92.726562 91.542969 C 93.183594 91.542969 93.640625 91.867188 93.773438 92.324219 L 96.707031 102.113281 C 96.839844 102.441406 96.773438 102.832031 96.511719 103.09375 C 96.316406 103.355469 95.992188 103.550781 95.664062 103.550781 Z M 49.789062 101.332031 L 94.230469 101.332031 L 91.878906 93.695312 L 52.074219 93.695312 Z M 49.789062 101.332031 " fill-opacity="1" fill-rule="evenodd"/><path fill="#ffffff" d="M 87.898438 103.550781 L 56.054688 103.550781 C 55.726562 103.550781 55.464844 103.355469 55.203125 103.15625 C 55.007812 102.898438 54.945312 102.570312 55.007812 102.246094 L 56.964844 92.390625 C 57.097656 91.867188 57.554688 91.542969 58.074219 91.542969 L 85.941406 91.542969 C 86.464844 91.542969 86.917969 91.867188 86.984375 92.390625 L 89.007812 102.246094 C 89.074219 102.570312 88.941406 102.898438 88.746094 103.15625 C 88.550781 103.355469 88.226562 103.550781 87.898438 103.550781 Z M 57.421875 101.332031 L 86.59375 101.332031 L 85.027344 93.695312 L 58.925781 93.695312 Z M 57.421875 101.332031 " fill-opacity="1" fill-rule="evenodd"/><path fill="#ffffff" d="M 80.066406 103.550781 L 63.949219 103.550781 C 63.621094 103.550781 63.363281 103.417969 63.167969 103.15625 C 62.96875 102.960938 62.839844 102.636719 62.90625 102.308594 L 63.882812 92.519531 C 63.949219 91.933594 64.40625 91.542969 64.992188 91.542969 L 79.023438 91.542969 C 79.609375 91.542969 80.066406 91.933594 80.132812 92.519531 L 81.113281 102.308594 C 81.175781 102.636719 81.046875 102.960938 80.851562 103.15625 C 80.65625 103.417969 80.328125 103.550781 80.066406 103.550781 Z M 65.1875 101.332031 L 78.828125 101.332031 L 78.042969 93.695312 L 65.972656 93.695312 Z M 65.1875 101.332031 " fill-opacity="1" fill-rule="evenodd"/><path fill="#ffffff" d="M 71.976562 103.550781 C 71.386719 103.550781 70.933594 103.027344 70.933594 102.441406 L 70.933594 92.652344 C 70.933594 92 71.386719 91.542969 71.976562 91.542969 C 72.628906 91.542969 73.085938 92 73.085938 92.652344 L 73.085938 102.441406 C 73.085938 103.027344 72.628906 103.550781 71.976562 103.550781 Z M 71.976562 103.550781 " fill-opacity="1" fill-rule="evenodd"/><path fill="#ffffff" d="M 38.761719 83.386719 L 36.605469 83.386719 C 36.019531 83.386719 35.496094 82.929688 35.496094 82.277344 C 35.496094 81.6875 36.019531 81.230469 36.605469 81.230469 L 38.761719 81.230469 C 39.347656 81.230469 39.804688 81.6875 39.804688 82.277344 C 39.804688 82.929688 39.347656 83.386719 38.761719 83.386719 Z M 38.761719 83.386719 " fill-opacity="1" fill-rule="evenodd"/><path fill="#ffffff" d="M 47.242188 83.386719 L 45.089844 83.386719 C 44.503906 83.386719 43.980469 82.929688 43.980469 82.277344 C 43.980469 81.6875 44.503906 81.230469 45.089844 81.230469 L 47.242188 81.230469 C 47.832031 81.230469 48.351562 81.6875 48.351562 82.277344 C 48.351562 82.929688 47.832031 83.386719 47.242188 83.386719 Z M 47.242188 83.386719 " fill-opacity="1" fill-rule="evenodd"/><path fill="#ffffff" d="M 107.410156 83.386719 L 57.226562 83.386719 C 56.574219 83.386719 56.117188 82.929688 56.117188 82.277344 C 56.117188 81.6875 56.574219 81.230469 57.226562 81.230469 L 107.410156 81.230469 C 107.996094 81.230469 108.519531 81.6875 108.519531 82.277344 C 108.519531 82.929688 107.996094 83.386719 107.410156 83.386719 Z M 107.410156 83.386719 " fill-opacity="1" fill-rule="evenodd"/><path fill="#ffffff" d="M 43.328125 47.753906 C 43.066406 47.753906 42.742188 47.6875 42.542969 47.429688 C 42.152344 47.035156 42.152344 46.320312 42.542969 45.925781 L 49.332031 39.140625 C 49.789062 38.683594 50.441406 38.683594 50.898438 39.140625 C 51.355469 39.53125 51.355469 40.25 50.898438 40.640625 L 44.109375 47.429688 C 43.914062 47.6875 43.589844 47.753906 43.328125 47.753906 Z M 43.328125 47.753906 " fill-opacity="1" fill-rule="evenodd"/><path fill="#ffffff" d="M 40.261719 59.175781 C 40 59.175781 39.738281 59.042969 39.476562 58.847656 C 39.085938 58.390625 39.085938 57.738281 39.476562 57.28125 L 60.75 36.074219 C 61.144531 35.683594 61.859375 35.683594 62.253906 36.074219 C 62.710938 36.53125 62.710938 37.183594 62.253906 37.640625 L 41.042969 58.847656 C 40.847656 59.042969 40.585938 59.175781 40.261719 59.175781 Z M 40.261719 59.175781 " fill-opacity="1" fill-rule="evenodd"/><path fill="#ffffff" d="M 99.320312 116.925781 L 44.699219 116.925781 C 44.109375 116.925781 43.589844 116.40625 43.589844 115.816406 L 43.589844 111.835938 C 43.589844 111.25 44.109375 110.792969 44.699219 110.792969 L 99.320312 110.792969 C 99.90625 110.792969 100.363281 111.25 100.363281 111.835938 L 100.363281 115.816406 C 100.363281 116.40625 99.90625 116.925781 99.320312 116.925781 Z M 45.808594 114.773438 L 98.210938 114.773438 L 98.210938 112.945312 L 45.808594 112.945312 Z M 45.808594 114.773438 " fill-opacity="1" fill-rule="evenodd"/></svg>