<svg xmlns="http://www.w3.org/2000/svg" xmlns:xlink="http://www.w3.org/1999/xlink" width="192" zoomAndPan="magnify" viewBox="0 0 144 143.999998" height="192" preserveAspectRatio="xMidYMid meet" version="1.0"><defs><clipPath id="ebd59a727e"><path d="M 12.894531 28.039062 L 131.394531 28.039062 L 131.394531 115.789062 L 12.894531 115.789062 Z M 12.894531 28.039062 " clip-rule="nonzero"/></clipPath><clipPath id="1b70c49398"><path d="M 20 110 L 27 110 L 27 115.789062 L 20 115.789062 Z M 20 110 " clip-rule="nonzero"/></clipPath></defs><g clip-path="url(#ebd59a727e)"><path fill="#ffffff" d="M 90.640625 29.144531 C 91.886719 28.71875 93.117188 28.070312 94.464844 28.039062 C 94.503906 28.039062 94.546875 28.042969 94.589844 28.050781 C 95.765625 28.285156 96.355469 29.472656 96.925781 30.40625 C 100.328125 36.429688 103.753906 42.445312 106.828125 48.636719 C 106.957031 48.890625 107.226562 49.050781 107.511719 49.03125 C 111.972656 48.726562 116.375 47.824219 120.847656 47.6875 C 122.128906 47.570312 122.984375 48.59375 123.238281 49.746094 C 124.9375 56.957031 126.140625 64.277344 127.214844 71.601562 C 128.902344 82.082031 130.421875 92.59375 131.054688 103.191406 C 131.121094 104.835938 129.269531 105.042969 128.042969 105.21875 C 104.402344 108.59375 80.683594 111.464844 57.003906 114.558594 C 52.554688 115.042969 48.125 115.652344 43.664062 115.941406 C 42.699219 116.011719 41.480469 115.8125 41.089844 114.789062 C 40.578125 113.460938 40.5 112.015625 40.339844 110.601562 C 40.292969 110.183594 39.890625 109.910156 39.480469 110.011719 C 36.925781 110.636719 34.347656 111.273438 31.734375 111.539062 C 31.578125 111.558594 31.417969 111.523438 31.296875 111.421875 C 30.503906 110.761719 30.453125 109.585938 30.078125 108.671875 C 24.417969 94.53125 19.09375 80.253906 13.648438 66.023438 C 13.292969 64.871094 12.496094 63.535156 13.257812 62.375 C 13.746094 61.6875 14.484375 61.242188 15.21875 60.863281 C 23.527344 57.046875 32.003906 53.585938 40.320312 49.777344 C 52.207031 44.207031 64.585938 39.808594 76.664062 34.679688 C 81.269531 32.703125 85.980469 30.996094 90.640625 29.144531 Z M 90.640625 29.144531 " fill-opacity="1" fill-rule="nonzero"/></g><path fill="#ffffff" d="M 49.402344 49.363281 C 63.953125 43.289062 78.523438 37.25 93.246094 31.59375 C 93.578125 31.464844 93.953125 31.601562 94.125 31.910156 C 97.253906 37.460938 100.359375 43.035156 103.34375 48.671875 C 103.578125 49.113281 103.296875 49.652344 102.800781 49.71875 C 101.394531 49.898438 99.988281 50.097656 98.585938 50.300781 C 98.238281 50.351562 97.902344 50.140625 97.800781 49.804688 C 97.203125 47.839844 96.613281 45.867188 95.667969 44.039062 C 95.5625 43.835938 95.367188 43.699219 95.140625 43.675781 C 93.355469 43.46875 91.5 43.5 89.84375 42.71875 C 88.382812 42 87.167969 40.910156 85.890625 39.917969 C 85.710938 39.777344 85.472656 39.734375 85.253906 39.800781 C 80.46875 41.285156 75.789062 43.09375 71.097656 44.839844 C 61.609375 48.316406 51.96875 51.425781 42.75 55.578125 C 38.347656 57.445312 34.0625 59.570312 29.726562 61.566406 C 29.484375 61.675781 29.324219 61.914062 29.308594 62.179688 C 29.164062 64.488281 28.75 66.859375 27.382812 68.777344 C 26.582031 70.011719 25.257812 70.714844 24.222656 71.710938 C 24.136719 71.792969 24.070312 71.902344 24.054688 72.019531 C 23.976562 72.621094 24.328125 73.199219 24.507812 73.757812 C 27.257812 80.566406 29.8125 87.449219 32.542969 94.257812 C 32.894531 95.0625 33.136719 95.988281 33.769531 96.628906 C 33.847656 96.703125 33.941406 96.757812 34.046875 96.78125 C 35.394531 97.109375 36.796875 96.859375 38.179688 96.785156 C 38.542969 96.761719 38.851562 97.042969 38.890625 97.40625 C 39.203125 100.289062 39.609375 103.167969 39.835938 106.0625 C 39.863281 106.421875 39.613281 106.746094 39.257812 106.8125 C 37.472656 107.152344 35.695312 107.515625 33.917969 107.859375 C 33.578125 107.925781 33.242188 107.738281 33.117188 107.417969 C 27.570312 93.078125 21.902344 78.777344 16.609375 64.347656 C 16.476562 63.988281 16.652344 63.59375 17.003906 63.445312 C 27.84375 58.851562 38.609375 54.070312 49.402344 49.363281 Z M 49.402344 49.363281 " fill-opacity="1" fill-rule="nonzero"/><path fill="#ffffff" d="M 52.851562 54.683594 C 63.308594 50.820312 73.925781 47.375 84.207031 43.0625 C 84.460938 42.957031 84.75 43.003906 84.960938 43.175781 C 87.335938 45.121094 90.28125 46.199219 93.320312 46.511719 C 93.46875 46.527344 93.613281 46.585938 93.722656 46.691406 C 94.574219 47.507812 95.121094 48.617188 95.722656 49.664062 C 95.988281 50.121094 95.714844 50.734375 95.191406 50.8125 C 78.519531 53.292969 61.917969 56.308594 45.222656 58.613281 C 44.835938 58.667969 44.675781 58.183594 45.023438 58.007812 C 47.546875 56.738281 50.257812 55.808594 52.851562 54.683594 Z M 52.851562 54.683594 " fill-opacity="1" fill-rule="nonzero"/><path fill="#ffffff" d="M 105.394531 52.835938 C 110.082031 52.105469 114.832031 51.929688 119.53125 51.296875 C 119.898438 51.25 120.246094 51.484375 120.328125 51.84375 C 122.960938 63.257812 124.296875 74.90625 125.9375 86.488281 C 126.632812 91.402344 127.25 96.335938 127.648438 101.289062 C 127.679688 101.660156 127.414062 101.992188 127.046875 102.046875 C 101.402344 105.9375 75.617188 108.792969 49.898438 112.109375 C 48.101562 112.261719 46.324219 112.554688 44.527344 112.699219 C 44.140625 112.730469 43.808594 112.441406 43.773438 112.054688 C 42.574219 98.390625 40.40625 84.839844 38.554688 71.253906 C 38.1875 68.707031 37.960938 66.136719 37.429688 63.617188 C 37.332031 63.160156 37.679688 62.722656 38.148438 62.710938 C 41.117188 62.644531 44.054688 62.058594 47 61.710938 C 66.515625 59.070312 85.863281 55.320312 105.394531 52.835938 Z M 105.394531 52.835938 " fill-opacity="1" fill-rule="nonzero"/><path fill="#ffffff" d="M 104.796875 56.597656 C 105.773438 56.503906 106.773438 56.382812 107.753906 56.558594 C 107.816406 56.570312 107.878906 56.589844 107.933594 56.621094 C 108.714844 57.058594 109.046875 57.980469 109.589844 58.660156 C 111.253906 61.132812 113.890625 63.019531 116.917969 63.285156 C 118.136719 63.296875 118.195312 64.722656 118.394531 65.609375 C 119.464844 73.226562 120.507812 80.847656 121.574219 88.464844 C 121.652344 89.214844 121.890625 90.09375 121.339844 90.71875 C 121.308594 90.753906 121.277344 90.78125 121.238281 90.808594 C 120.183594 91.523438 118.847656 91.710938 117.847656 92.523438 C 116.039062 93.902344 115.015625 96.035156 114.488281 98.199219 C 114.230469 98.964844 114.148438 100.058594 113.230469 100.320312 C 107.390625 101.4375 101.507812 102.371094 95.601562 103.121094 C 82.734375 104.742188 69.859375 106.464844 56.921875 107.390625 C 56.75 107.402344 56.578125 107.355469 56.449219 107.242188 C 55.726562 106.59375 55.328125 105.675781 54.835938 104.859375 C 53.527344 102.535156 51.328125 100.695312 48.738281 100.003906 C 47.628906 99.660156 46.035156 99.335938 45.957031 97.898438 C 44.921875 90.605469 44.21875 83.261719 43.21875 75.964844 C 43.214844 75.320312 42.960938 74.566406 43.289062 73.980469 C 43.335938 73.898438 43.40625 73.835938 43.488281 73.789062 C 44.761719 73.039062 46.246094 72.617188 47.351562 71.597656 C 49.058594 70.03125 49.867188 67.75 50.300781 65.53125 C 50.453125 64.855469 50.546875 64.109375 50.988281 63.550781 C 51.0625 63.453125 51.171875 63.390625 51.292969 63.359375 C 53.242188 62.808594 55.292969 62.714844 57.289062 62.363281 C 73.082031 60.113281 88.929688 58.289062 104.796875 56.597656 Z M 104.796875 56.597656 " fill-opacity="1" fill-rule="nonzero"/><path fill="#ffffff" d="M 85.859375 61.917969 C 92.554688 61.078125 99.308594 60.554688 105.957031 59.347656 C 106.257812 59.292969 106.5625 59.4375 106.722656 59.703125 C 108.636719 62.878906 111.859375 65.195312 115.460938 66.066406 C 115.765625 66.140625 115.996094 66.394531 116.027344 66.703125 C 116.765625 73.914062 117.652344 81.109375 118.5625 88.300781 C 118.605469 88.625 118.421875 88.929688 118.128906 89.066406 C 114.625 90.699219 112.367188 94.117188 111.40625 97.789062 C 111.328125 98.085938 111.082031 98.304688 110.777344 98.339844 C 98.082031 99.730469 85.414062 101.363281 72.710938 102.683594 C 68.039062 103.183594 63.371094 103.753906 58.703125 104.339844 C 58.507812 104.367188 58.304688 104.308594 58.164062 104.171875 C 57.152344 103.195312 56.589844 101.785156 55.503906 100.847656 C 53.769531 99.007812 51.511719 97.78125 49.109375 97.046875 C 48.824219 96.960938 48.613281 96.707031 48.589844 96.410156 C 48.039062 89.609375 47.167969 82.835938 46.539062 76.042969 C 46.515625 75.746094 46.671875 75.46875 46.929688 75.328125 C 50.242188 73.503906 52.667969 70.035156 52.972656 66.242188 C 53 65.882812 53.273438 65.582031 53.636719 65.546875 C 64.386719 64.457031 75.132812 63.261719 85.859375 61.917969 Z M 85.859375 61.917969 " fill-opacity="1" fill-rule="nonzero"/><path fill="#ffffff" d="M 31.921875 63.453125 C 31.933594 63.136719 32.144531 62.855469 32.453125 62.761719 C 33.433594 62.472656 34.417969 62.15625 35.4375 62.117188 C 35.75 62.105469 35.859375 62.476562 35.601562 62.65625 C 35.269531 62.890625 34.925781 63.117188 34.578125 63.332031 C 34.339844 63.480469 34.207031 63.757812 34.242188 64.035156 C 35.5 73.734375 36.886719 83.421875 38.328125 93.101562 C 38.386719 93.5 38.105469 93.871094 37.703125 93.917969 C 37.234375 93.972656 36.765625 94.027344 36.300781 94.078125 C 35.976562 94.117188 35.671875 93.929688 35.554688 93.625 C 32.960938 86.792969 30.304688 79.984375 27.652344 73.175781 C 27.53125 72.867188 27.640625 72.523438 27.898438 72.316406 C 30.546875 70.199219 31.796875 66.796875 31.921875 63.453125 Z M 31.921875 63.453125 " fill-opacity="1" fill-rule="nonzero"/><path fill="#ffffff" d="M 77.628906 66.140625 C 77.59375 65.011719 79.128906 64.066406 80.050781 64.835938 C 81.097656 65.757812 80.570312 67.511719 81.269531 68.5625 C 81.367188 68.710938 81.535156 68.785156 81.710938 68.800781 C 83.742188 68.96875 85.839844 69.164062 87.679688 70.113281 C 88.8125 70.648438 89.566406 72.203125 88.746094 73.300781 C 88.710938 73.351562 88.660156 73.394531 88.609375 73.425781 C 87.65625 74.03125 86.519531 73.558594 85.558594 73.222656 C 84.601562 72.851562 83.605469 72.59375 82.589844 72.453125 C 82.136719 72.390625 81.769531 72.785156 81.835938 73.234375 C 82.152344 75.445312 82.492188 77.652344 82.742188 79.871094 C 82.773438 80.144531 82.957031 80.378906 83.214844 80.46875 C 85.644531 81.304688 88.203125 82.070312 90.144531 83.824219 C 92.34375 85.820312 92.621094 89.449219 90.929688 91.851562 C 89.746094 93.75 87.703125 94.816406 85.644531 95.527344 C 85.367188 95.621094 85.175781 95.871094 85.15625 96.160156 C 85.085938 97.203125 84.925781 98.550781 83.664062 98.539062 C 82.449219 98.6875 82.089844 97.613281 81.890625 96.640625 C 81.820312 96.304688 81.535156 96.0625 81.199219 96.050781 C 78.019531 95.921875 74.589844 95.035156 72.65625 92.328125 C 72.632812 92.296875 72.605469 92.265625 72.578125 92.234375 C 71.648438 91.21875 72.769531 89.488281 74.070312 89.722656 C 74.109375 89.730469 74.144531 89.742188 74.179688 89.757812 C 75.375 90.246094 76.308594 91.21875 77.523438 91.683594 C 78.5 92.136719 79.570312 92.257812 80.632812 92.347656 C 81.089844 92.386719 81.464844 91.988281 81.40625 91.535156 C 81.078125 89.046875 80.75 86.558594 80.304688 84.085938 C 80.269531 83.886719 80.148438 83.710938 79.96875 83.613281 C 78.214844 82.667969 76.070312 82.566406 74.351562 81.480469 C 71.515625 80.152344 70.25 76.351562 71.773438 73.613281 C 72.976562 71.476562 75.125 70.09375 77.402344 69.304688 C 77.734375 69.1875 77.945312 68.863281 77.898438 68.515625 C 77.785156 67.726562 77.664062 66.9375 77.628906 66.140625 Z M 77.628906 66.140625 " fill-opacity="1" fill-rule="nonzero"/><path fill="#ffffff" d="M 75.433594 74.414062 C 76.101562 73.800781 76.921875 73.425781 77.75 73.070312 C 78.191406 72.878906 78.703125 73.167969 78.765625 73.644531 C 78.976562 75.21875 79.210938 76.789062 79.386719 78.363281 C 79.449219 78.882812 78.941406 79.289062 78.4375 79.152344 C 77.085938 78.78125 75.65625 78.410156 74.894531 77.160156 C 74.285156 76.28125 74.753906 75.105469 75.433594 74.414062 Z M 75.433594 74.414062 " fill-opacity="1" fill-rule="nonzero"/><path fill="#ffffff" d="M 83.667969 85.675781 C 83.582031 85.128906 84.128906 84.683594 84.648438 84.875 C 86.121094 85.414062 87.648438 86.039062 88.367188 87.472656 C 88.390625 87.515625 88.40625 87.5625 88.417969 87.609375 C 88.851562 89.570312 87.273438 91.027344 85.628906 91.816406 C 85.25 92 84.816406 91.769531 84.71875 91.363281 C 84.265625 89.488281 83.96875 87.582031 83.667969 85.675781 Z M 83.667969 85.675781 " fill-opacity="1" fill-rule="nonzero"/><path fill="#ffffff" d="M 21.351562 105.164062 C 21.292969 105.074219 21.253906 104.964844 21.257812 104.855469 C 21.304688 103.894531 22.636719 103.835938 23.207031 104.484375 C 23.226562 104.511719 23.25 104.535156 23.277344 104.558594 C 24.894531 106.082031 26.863281 107.6875 27.496094 109.871094 C 27.640625 110.367188 27.144531 110.75 26.683594 110.511719 C 24.429688 109.355469 22.683594 107.28125 21.351562 105.164062 Z M 21.351562 105.164062 " fill-opacity="1" fill-rule="nonzero"/><g clip-path="url(#1b70c49398)"><path fill="#ffffff" d="M 21.074219 111.503906 C 20.832031 111.085938 21.144531 110.589844 21.617188 110.691406 C 23.019531 110.996094 24.097656 112.15625 25.148438 113.101562 C 25.503906 113.421875 25.816406 113.777344 26.097656 114.15625 C 26.429688 114.605469 26.054688 115.171875 25.515625 115.023438 C 23.652344 114.511719 22.039062 113.179688 21.074219 111.503906 Z M 21.074219 111.503906 " fill-opacity="1" fill-rule="nonzero"/></g></svg>