<svg xmlns="http://www.w3.org/2000/svg" xmlns:xlink="http://www.w3.org/1999/xlink" width="192" zoomAndPan="magnify" viewBox="0 0 144 143.999998" height="192" preserveAspectRatio="xMidYMid meet" version="1.0"><defs><clipPath id="ec46703acd"><path d="M 11 33 L 133 33 L 133 111 L 11 111 Z M 11 33 " clip-rule="nonzero"/></clipPath><clipPath id="d4fd8559c4"><path d="M 11.152344 50.566406 L 121.996094 31.332031 L 132.765625 93.402344 L 21.921875 112.636719 Z M 11.152344 50.566406 " clip-rule="nonzero"/></clipPath><clipPath id="a8e1fc1b44"><path d="M 11.152344 50.566406 L 121.996094 31.332031 L 132.765625 93.402344 L 21.921875 112.636719 Z M 11.152344 50.566406 " clip-rule="nonzero"/></clipPath></defs><g clip-path="url(#ec46703acd)"><g clip-path="url(#d4fd8559c4)"><g clip-path="url(#a8e1fc1b44)"><path fill="#ffffff" d="M 37.382812 91.453125 C 37.757812 92.082031 38.492188 92.445312 39.253906 92.3125 L 101.542969 81.503906 C 102.238281 81.382812 102.824219 80.863281 102.996094 80.136719 C 103.53125 77.914062 104.46875 75.824219 105.738281 73.96875 C 106.988281 72.144531 108.566406 70.539062 110.398438 69.253906 C 111.023438 68.878906 111.386719 68.144531 111.257812 67.386719 L 108.972656 54.269531 C 108.855469 53.59375 108.359375 53.015625 107.65625 52.828125 C 105.453125 52.238281 103.386719 51.246094 101.5625 49.925781 C 99.761719 48.621094 98.191406 46.992188 96.945312 45.105469 C 96.570312 44.476562 95.835938 44.109375 95.074219 44.242188 L 32.785156 55.050781 C 32.09375 55.171875 31.507812 55.691406 31.332031 56.417969 C 30.800781 58.640625 29.863281 60.734375 28.59375 62.585938 C 27.339844 64.410156 25.765625 66.015625 23.933594 67.304688 C 23.304688 67.675781 22.941406 68.410156 23.074219 69.171875 L 25.355469 82.289062 C 25.472656 82.960938 25.972656 83.542969 26.675781 83.726562 C 28.878906 84.320312 30.941406 85.3125 32.769531 86.632812 C 34.566406 87.933594 36.136719 89.5625 37.382812 91.453125 Z M 64.554688 53.222656 C 68.710938 52.503906 72.769531 53.535156 75.964844 55.785156 C 79.160156 58.035156 81.5 61.507812 82.21875 65.664062 C 82.941406 69.824219 81.910156 73.878906 79.660156 77.074219 C 77.410156 80.269531 73.933594 82.609375 69.777344 83.332031 C 65.621094 84.054688 61.566406 83.019531 58.367188 80.769531 C 55.171875 78.519531 52.835938 75.046875 52.113281 70.890625 C 51.390625 66.734375 52.425781 62.675781 54.675781 59.480469 C 56.925781 56.28125 60.394531 53.945312 64.554688 53.222656 Z M 99.441406 52.851562 C 101.308594 54.203125 103.382812 55.265625 105.59375 55.988281 L 107.488281 66.898438 C 105.648438 68.324219 104.054688 70.023438 102.753906 71.925781 C 101.457031 73.820312 100.449219 75.910156 99.785156 78.125 L 80.75 81.429688 C 81.433594 80.722656 82.0625 79.964844 82.628906 79.164062 C 85.414062 75.207031 86.691406 70.1875 85.800781 65.042969 C 84.90625 59.902344 82.015625 55.605469 78.058594 52.816406 C 77.257812 52.253906 76.40625 51.753906 75.527344 51.316406 L 94.5625 48.015625 C 95.929688 49.875 97.582031 51.507812 99.441406 52.851562 Z M 26.84375 69.652344 C 28.679688 68.230469 30.277344 66.53125 31.582031 64.628906 C 32.878906 62.734375 33.882812 60.644531 34.546875 58.429688 L 53.585938 55.125 C 52.902344 55.832031 52.273438 56.585938 51.707031 57.390625 C 48.921875 61.347656 47.644531 66.367188 48.535156 71.511719 C 49.429688 76.65625 52.320312 80.949219 56.277344 83.738281 C 57.078125 84.300781 57.929688 84.800781 58.808594 85.234375 L 39.773438 88.539062 C 38.398438 86.675781 36.75 85.046875 34.890625 83.703125 C 33.023438 82.347656 30.945312 81.289062 28.738281 80.566406 Z M 70.609375 73.003906 C 70.925781 72.554688 71.070312 71.984375 70.96875 71.410156 C 70.871094 70.835938 70.539062 70.347656 70.09375 70.035156 C 69.648438 69.722656 69.078125 69.574219 68.503906 69.675781 L 66.378906 70.042969 C 64.929688 70.292969 63.511719 69.929688 62.394531 69.144531 C 61.28125 68.355469 60.457031 67.144531 60.207031 65.695312 C 59.957031 64.253906 60.320312 62.835938 61.105469 61.71875 L 61.105469 61.710938 C 61.796875 60.730469 62.820312 59.976562 64.042969 59.640625 L 63.773438 58.097656 C 63.625 57.226562 64.207031 56.398438 65.078125 56.246094 C 65.949219 56.097656 66.78125 56.679688 66.929688 57.550781 L 67.195312 59.085938 C 68.460938 58.992188 69.675781 59.355469 70.660156 60.046875 C 71.777344 60.832031 72.597656 62.046875 72.847656 63.492188 C 73 64.363281 72.414062 65.195312 71.542969 65.34375 C 70.675781 65.496094 69.84375 64.910156 69.691406 64.039062 C 69.59375 63.464844 69.261719 62.980469 68.816406 62.660156 C 68.371094 62.34375 67.800781 62.203125 67.226562 62.300781 L 66.179688 62.484375 C 66.171875 62.484375 66.167969 62.484375 66.164062 62.484375 C 66.160156 62.484375 66.15625 62.488281 66.152344 62.488281 L 65.101562 62.667969 C 64.527344 62.769531 64.039062 63.097656 63.726562 63.546875 C 63.410156 63.988281 63.265625 64.558594 63.367188 65.140625 C 63.464844 65.714844 63.796875 66.199219 64.242188 66.515625 C 64.691406 66.832031 65.257812 66.976562 65.832031 66.875 L 67.957031 66.507812 C 69.402344 66.257812 70.824219 66.621094 71.941406 67.40625 C 73.054688 68.191406 73.878906 69.40625 74.128906 70.855469 C 74.378906 72.304688 74.015625 73.722656 73.230469 74.839844 L 73.136719 74.953125 C 72.445312 75.882812 71.460938 76.585938 70.292969 76.910156 L 70.558594 78.445312 C 70.710938 79.3125 70.125 80.144531 69.253906 80.296875 C 68.382812 80.445312 67.554688 79.863281 67.402344 78.992188 L 67.136719 77.457031 C 65.875 77.550781 64.65625 77.1875 63.675781 76.496094 C 62.558594 75.710938 61.734375 74.496094 61.484375 73.046875 C 61.332031 72.179688 61.917969 71.347656 62.789062 71.195312 C 63.660156 71.046875 64.488281 71.628906 64.640625 72.5 C 64.742188 73.078125 65.070312 73.5625 65.515625 73.878906 C 65.960938 74.191406 66.53125 74.335938 67.105469 74.238281 L 68.164062 74.054688 C 68.167969 74.054688 68.167969 74.054688 68.167969 74.054688 C 68.171875 74.054688 68.171875 74.054688 68.175781 74.054688 L 69.230469 73.871094 C 69.78125 73.773438 70.246094 73.476562 70.554688 73.070312 Z M 121.816406 40.515625 L 115.480469 41.617188 L 114.253906 34.558594 C 114.082031 33.570312 113.140625 32.90625 112.15625 33.078125 L 12.945312 50.292969 C 11.960938 50.464844 11.296875 51.40625 11.46875 52.394531 L 20.074219 101.996094 C 20.246094 102.984375 21.1875 103.644531 22.175781 103.476562 L 28.511719 102.375 L 29.738281 109.433594 C 29.910156 110.421875 30.851562 111.082031 31.835938 110.914062 L 131.046875 93.695312 C 132.035156 93.527344 132.695312 92.585938 132.523438 91.597656 L 123.917969 41.996094 C 123.746094 41.007812 122.804688 40.34375 121.816406 40.515625 Z M 15.355469 53.5625 L 110.988281 36.964844 L 118.976562 82.996094 L 23.34375 99.589844 Z M 128.636719 90.429688 L 33.003906 107.023438 L 32.089844 101.753906 L 121.382812 86.257812 C 122.371094 86.085938 123.03125 85.148438 122.863281 84.160156 L 116.101562 45.195312 L 120.648438 44.402344 Z M 128.636719 90.429688 " fill-opacity="1" fill-rule="nonzero"/></g></g></g></svg>