<svg xmlns="http://www.w3.org/2000/svg" xmlns:xlink="http://www.w3.org/1999/xlink" width="192" zoomAndPan="magnify" viewBox="0 0 144 143.999998" height="192" preserveAspectRatio="xMidYMid meet" version="1.0"><defs><g/><clipPath id="5d0bcca82e"><path d="M 31.714844 79 L 57.964844 79 L 57.964844 105.089844 L 31.714844 105.089844 Z M 31.714844 79 " clip-rule="nonzero"/></clipPath><clipPath id="74a0550f95"><path d="M 31.714844 82.589844 L 31.714844 101.601562 C 31.714844 103.671875 33.394531 105.351562 35.464844 105.351562 L 54.476562 105.351562 C 56.546875 105.351562 58.226562 103.671875 58.226562 101.601562 L 58.226562 82.589844 C 58.226562 80.519531 56.546875 78.839844 54.476562 78.839844 L 35.464844 78.839844 C 33.394531 78.839844 31.714844 80.519531 31.714844 82.589844 Z M 31.714844 82.589844 " clip-rule="nonzero"/></clipPath><clipPath id="849fe65e02"><path d="M 31.714844 78.839844 L 57.964844 78.839844 L 57.964844 105.089844 L 31.714844 105.089844 Z M 31.714844 78.839844 " clip-rule="nonzero"/></clipPath><clipPath id="1b911fbbd1"><path d="M 31.714844 82.589844 L 31.714844 101.601562 C 31.714844 103.671875 33.394531 105.351562 35.464844 105.351562 L 54.476562 105.351562 C 56.546875 105.351562 58.226562 103.671875 58.226562 101.601562 L 58.226562 82.589844 C 58.226562 80.519531 56.546875 78.839844 54.476562 78.839844 L 35.464844 78.839844 C 33.394531 78.839844 31.714844 80.519531 31.714844 82.589844 Z M 31.714844 82.589844 " clip-rule="nonzero"/></clipPath><clipPath id="a0470cb915"><path d="M 56 52 L 56.90625 52 L 56.90625 75 L 56 75 Z M 56 52 " clip-rule="nonzero"/></clipPath><clipPath id="961736b012"><path d="M 31.40625 54.089844 L 31.40625 72.839844 C 31.40625 73.835938 31.800781 74.789062 32.503906 75.492188 C 33.207031 76.195312 34.160156 76.589844 35.15625 76.589844 L 53.90625 76.589844 C 55.980469 76.589844 57.65625 74.910156 57.65625 72.839844 L 57.65625 54.089844 C 57.65625 53.09375 57.261719 52.140625 56.558594 51.4375 C 55.855469 50.734375 54.902344 50.339844 53.90625 50.339844 L 35.15625 50.339844 C 33.085938 50.339844 31.40625 52.019531 31.40625 54.089844 Z M 31.40625 54.089844 " clip-rule="nonzero"/></clipPath><clipPath id="670ca0f24a"><path d="M 36.054688 51.238281 L 53.007812 51.238281 C 55.078125 51.238281 56.757812 52.917969 56.757812 54.988281 L 56.757812 71.941406 C 56.757812 74.011719 55.078125 75.691406 53.007812 75.691406 L 36.054688 75.691406 C 33.984375 75.691406 32.304688 74.011719 32.304688 71.941406 L 32.304688 54.988281 C 32.304688 52.917969 33.984375 51.238281 36.054688 51.238281 Z M 36.054688 51.238281 " clip-rule="nonzero"/></clipPath><clipPath id="a115df33fe"><path d="M 32.15625 52 L 33 52 L 33 75 L 32.15625 75 Z M 32.15625 52 " clip-rule="nonzero"/></clipPath><clipPath id="886fd3d2f2"><path d="M 31.40625 54.089844 L 31.40625 72.839844 C 31.40625 73.835938 31.800781 74.789062 32.503906 75.492188 C 33.207031 76.195312 34.160156 76.589844 35.15625 76.589844 L 53.90625 76.589844 C 55.980469 76.589844 57.65625 74.910156 57.65625 72.839844 L 57.65625 54.089844 C 57.65625 53.09375 57.261719 52.140625 56.558594 51.4375 C 55.855469 50.734375 54.902344 50.339844 53.90625 50.339844 L 35.15625 50.339844 C 33.085938 50.339844 31.40625 52.019531 31.40625 54.089844 Z M 31.40625 54.089844 " clip-rule="nonzero"/></clipPath><clipPath id="098a31abdb"><path d="M 36.054688 51.238281 L 53.007812 51.238281 C 55.078125 51.238281 56.757812 52.917969 56.757812 54.988281 L 56.757812 71.941406 C 56.757812 74.011719 55.078125 75.691406 53.007812 75.691406 L 36.054688 75.691406 C 33.984375 75.691406 32.304688 74.011719 32.304688 71.941406 L 32.304688 54.988281 C 32.304688 52.917969 33.984375 51.238281 36.054688 51.238281 Z M 36.054688 51.238281 " clip-rule="nonzero"/></clipPath><clipPath id="c2617a2a44"><path d="M 33 51.089844 L 56 51.089844 L 56 52 L 33 52 Z M 33 51.089844 " clip-rule="nonzero"/></clipPath><clipPath id="1c4ba55736"><path d="M 31.40625 54.089844 L 31.40625 72.839844 C 31.40625 73.835938 31.800781 74.789062 32.503906 75.492188 C 33.207031 76.195312 34.160156 76.589844 35.15625 76.589844 L 53.90625 76.589844 C 55.980469 76.589844 57.65625 74.910156 57.65625 72.839844 L 57.65625 54.089844 C 57.65625 53.09375 57.261719 52.140625 56.558594 51.4375 C 55.855469 50.734375 54.902344 50.339844 53.90625 50.339844 L 35.15625 50.339844 C 33.085938 50.339844 31.40625 52.019531 31.40625 54.089844 Z M 31.40625 54.089844 " clip-rule="nonzero"/></clipPath><clipPath id="bf43513525"><path d="M 36.054688 51.238281 L 53.007812 51.238281 C 55.078125 51.238281 56.757812 52.917969 56.757812 54.988281 L 56.757812 71.941406 C 56.757812 74.011719 55.078125 75.691406 53.007812 75.691406 L 36.054688 75.691406 C 33.984375 75.691406 32.304688 74.011719 32.304688 71.941406 L 32.304688 54.988281 C 32.304688 52.917969 33.984375 51.238281 36.054688 51.238281 Z M 36.054688 51.238281 " clip-rule="nonzero"/></clipPath><clipPath id="96dead765f"><path d="M 33 75 L 56 75 L 56 75.839844 L 33 75.839844 Z M 33 75 " clip-rule="nonzero"/></clipPath><clipPath id="7f5017435c"><path d="M 31.40625 54.089844 L 31.40625 72.839844 C 31.40625 73.835938 31.800781 74.789062 32.503906 75.492188 C 33.207031 76.195312 34.160156 76.589844 35.15625 76.589844 L 53.90625 76.589844 C 55.980469 76.589844 57.65625 74.910156 57.65625 72.839844 L 57.65625 54.089844 C 57.65625 53.09375 57.261719 52.140625 56.558594 51.4375 C 55.855469 50.734375 54.902344 50.339844 53.90625 50.339844 L 35.15625 50.339844 C 33.085938 50.339844 31.40625 52.019531 31.40625 54.089844 Z M 31.40625 54.089844 " clip-rule="nonzero"/></clipPath><clipPath id="7b7ecdcc9b"><path d="M 36.054688 51.238281 L 53.007812 51.238281 C 55.078125 51.238281 56.757812 52.917969 56.757812 54.988281 L 56.757812 71.941406 C 56.757812 74.011719 55.078125 75.691406 53.007812 75.691406 L 36.054688 75.691406 C 33.984375 75.691406 32.304688 74.011719 32.304688 71.941406 L 32.304688 54.988281 C 32.304688 52.917969 33.984375 51.238281 36.054688 51.238281 Z M 36.054688 51.238281 " clip-rule="nonzero"/></clipPath><clipPath id="0e2d88086f"><path d="M 55 51.089844 L 56.90625 51.089844 L 56.90625 53 L 55 53 Z M 55 51.089844 " clip-rule="nonzero"/></clipPath><clipPath id="46a59bf9ec"><path d="M 31.40625 54.089844 L 31.40625 72.839844 C 31.40625 73.835938 31.800781 74.789062 32.503906 75.492188 C 33.207031 76.195312 34.160156 76.589844 35.15625 76.589844 L 53.90625 76.589844 C 55.980469 76.589844 57.65625 74.910156 57.65625 72.839844 L 57.65625 54.089844 C 57.65625 53.09375 57.261719 52.140625 56.558594 51.4375 C 55.855469 50.734375 54.902344 50.339844 53.90625 50.339844 L 35.15625 50.339844 C 33.085938 50.339844 31.40625 52.019531 31.40625 54.089844 Z M 31.40625 54.089844 " clip-rule="nonzero"/></clipPath><clipPath id="92a527ff52"><path d="M 36.054688 51.238281 L 53.007812 51.238281 C 55.078125 51.238281 56.757812 52.917969 56.757812 54.988281 L 56.757812 71.941406 C 56.757812 74.011719 55.078125 75.691406 53.007812 75.691406 L 36.054688 75.691406 C 33.984375 75.691406 32.304688 74.011719 32.304688 71.941406 L 32.304688 54.988281 C 32.304688 52.917969 33.984375 51.238281 36.054688 51.238281 Z M 36.054688 51.238281 " clip-rule="nonzero"/></clipPath><clipPath id="77829aaffc"><path d="M 32.15625 51.089844 L 34 51.089844 L 34 53 L 32.15625 53 Z M 32.15625 51.089844 " clip-rule="nonzero"/></clipPath><clipPath id="1fb77171e5"><path d="M 31.40625 54.089844 L 31.40625 72.839844 C 31.40625 73.835938 31.800781 74.789062 32.503906 75.492188 C 33.207031 76.195312 34.160156 76.589844 35.15625 76.589844 L 53.90625 76.589844 C 55.980469 76.589844 57.65625 74.910156 57.65625 72.839844 L 57.65625 54.089844 C 57.65625 53.09375 57.261719 52.140625 56.558594 51.4375 C 55.855469 50.734375 54.902344 50.339844 53.90625 50.339844 L 35.15625 50.339844 C 33.085938 50.339844 31.40625 52.019531 31.40625 54.089844 Z M 31.40625 54.089844 " clip-rule="nonzero"/></clipPath><clipPath id="d18295ef2a"><path d="M 36.054688 51.238281 L 53.007812 51.238281 C 55.078125 51.238281 56.757812 52.917969 56.757812 54.988281 L 56.757812 71.941406 C 56.757812 74.011719 55.078125 75.691406 53.007812 75.691406 L 36.054688 75.691406 C 33.984375 75.691406 32.304688 74.011719 32.304688 71.941406 L 32.304688 54.988281 C 32.304688 52.917969 33.984375 51.238281 36.054688 51.238281 Z M 36.054688 51.238281 " clip-rule="nonzero"/></clipPath><clipPath id="1851f4a861"><path d="M 55 74 L 56.90625 74 L 56.90625 75.839844 L 55 75.839844 Z M 55 74 " clip-rule="nonzero"/></clipPath><clipPath id="ad864c84e7"><path d="M 31.40625 54.089844 L 31.40625 72.839844 C 31.40625 73.835938 31.800781 74.789062 32.503906 75.492188 C 33.207031 76.195312 34.160156 76.589844 35.15625 76.589844 L 53.90625 76.589844 C 55.980469 76.589844 57.65625 74.910156 57.65625 72.839844 L 57.65625 54.089844 C 57.65625 53.09375 57.261719 52.140625 56.558594 51.4375 C 55.855469 50.734375 54.902344 50.339844 53.90625 50.339844 L 35.15625 50.339844 C 33.085938 50.339844 31.40625 52.019531 31.40625 54.089844 Z M 31.40625 54.089844 " clip-rule="nonzero"/></clipPath><clipPath id="8444deaebd"><path d="M 36.054688 51.238281 L 53.007812 51.238281 C 55.078125 51.238281 56.757812 52.917969 56.757812 54.988281 L 56.757812 71.941406 C 56.757812 74.011719 55.078125 75.691406 53.007812 75.691406 L 36.054688 75.691406 C 33.984375 75.691406 32.304688 74.011719 32.304688 71.941406 L 32.304688 54.988281 C 32.304688 52.917969 33.984375 51.238281 36.054688 51.238281 Z M 36.054688 51.238281 " clip-rule="nonzero"/></clipPath><clipPath id="a46d7403f0"><path d="M 32.15625 74 L 34 74 L 34 75.839844 L 32.15625 75.839844 Z M 32.15625 74 " clip-rule="nonzero"/></clipPath><clipPath id="c785231c08"><path d="M 31.40625 54.089844 L 31.40625 72.839844 C 31.40625 73.835938 31.800781 74.789062 32.503906 75.492188 C 33.207031 76.195312 34.160156 76.589844 35.15625 76.589844 L 53.90625 76.589844 C 55.980469 76.589844 57.65625 74.910156 57.65625 72.839844 L 57.65625 54.089844 C 57.65625 53.09375 57.261719 52.140625 56.558594 51.4375 C 55.855469 50.734375 54.902344 50.339844 53.90625 50.339844 L 35.15625 50.339844 C 33.085938 50.339844 31.40625 52.019531 31.40625 54.089844 Z M 31.40625 54.089844 " clip-rule="nonzero"/></clipPath><clipPath id="0fbaa9021d"><path d="M 36.054688 51.238281 L 53.007812 51.238281 C 55.078125 51.238281 56.757812 52.917969 56.757812 54.988281 L 56.757812 71.941406 C 56.757812 74.011719 55.078125 75.691406 53.007812 75.691406 L 36.054688 75.691406 C 33.984375 75.691406 32.304688 74.011719 32.304688 71.941406 L 32.304688 54.988281 C 32.304688 52.917969 33.984375 51.238281 36.054688 51.238281 Z M 36.054688 51.238281 " clip-rule="nonzero"/></clipPath><clipPath id="ffe11665d5"><path d="M 31.40625 50.339844 L 57.65625 50.339844 L 57.65625 76.589844 L 31.40625 76.589844 Z M 31.40625 50.339844 " clip-rule="nonzero"/></clipPath><clipPath id="d561fe02f1"><path d="M 31.40625 54.089844 L 31.40625 72.839844 C 31.40625 73.835938 31.800781 74.789062 32.503906 75.492188 C 33.207031 76.195312 34.160156 76.589844 35.15625 76.589844 L 53.90625 76.589844 C 55.980469 76.589844 57.65625 74.910156 57.65625 72.839844 L 57.65625 54.089844 C 57.65625 53.09375 57.261719 52.140625 56.558594 51.4375 C 55.855469 50.734375 54.902344 50.339844 53.90625 50.339844 L 35.15625 50.339844 C 33.085938 50.339844 31.40625 52.019531 31.40625 54.089844 Z M 31.40625 54.089844 " clip-rule="nonzero"/></clipPath><clipPath id="578c9337e3"><path d="M 31.40625 54.089844 L 31.40625 72.839844 C 31.40625 73.832031 31.800781 74.789062 32.503906 75.492188 C 33.207031 76.195312 34.160156 76.589844 35.15625 76.589844 L 53.90625 76.589844 C 55.976562 76.589844 57.65625 74.910156 57.65625 72.839844 L 57.65625 54.089844 C 57.65625 53.09375 57.261719 52.140625 56.558594 51.4375 C 55.855469 50.734375 54.902344 50.339844 53.90625 50.339844 L 35.15625 50.339844 C 33.085938 50.339844 31.40625 52.015625 31.40625 54.089844 Z M 31.40625 54.089844 " clip-rule="nonzero"/></clipPath><clipPath id="1f3383a0e8"><path d="M 85 52 L 85.976562 52 L 85.976562 75 L 85 75 Z M 85 52 " clip-rule="nonzero"/></clipPath><clipPath id="e4cd16d8d0"><path d="M 60.476562 53.339844 L 60.476562 73.589844 C 60.476562 75.246094 61.820312 76.589844 63.476562 76.589844 L 83.726562 76.589844 C 85.386719 76.589844 86.726562 75.246094 86.726562 73.589844 L 86.726562 53.339844 C 86.726562 51.683594 85.386719 50.339844 83.726562 50.339844 L 63.476562 50.339844 C 61.820312 50.339844 60.476562 51.683594 60.476562 53.339844 Z M 60.476562 53.339844 " clip-rule="nonzero"/></clipPath><clipPath id="12431d0ae1"><path d="M 64.375 51.238281 L 82.828125 51.238281 C 84.484375 51.238281 85.828125 52.582031 85.828125 54.238281 L 85.828125 72.691406 C 85.828125 74.347656 84.484375 75.691406 82.828125 75.691406 L 64.375 75.691406 C 62.71875 75.691406 61.375 74.347656 61.375 72.691406 L 61.375 54.238281 C 61.375 52.582031 62.71875 51.238281 64.375 51.238281 Z M 64.375 51.238281 " clip-rule="nonzero"/></clipPath><clipPath id="a8d83a5e8a"><path d="M 61.226562 52 L 62 52 L 62 75 L 61.226562 75 Z M 61.226562 52 " clip-rule="nonzero"/></clipPath><clipPath id="0af796a502"><path d="M 60.476562 53.339844 L 60.476562 73.589844 C 60.476562 75.246094 61.820312 76.589844 63.476562 76.589844 L 83.726562 76.589844 C 85.386719 76.589844 86.726562 75.246094 86.726562 73.589844 L 86.726562 53.339844 C 86.726562 51.683594 85.386719 50.339844 83.726562 50.339844 L 63.476562 50.339844 C 61.820312 50.339844 60.476562 51.683594 60.476562 53.339844 Z M 60.476562 53.339844 " clip-rule="nonzero"/></clipPath><clipPath id="7f20e51242"><path d="M 64.375 51.238281 L 82.828125 51.238281 C 84.484375 51.238281 85.828125 52.582031 85.828125 54.238281 L 85.828125 72.691406 C 85.828125 74.347656 84.484375 75.691406 82.828125 75.691406 L 64.375 75.691406 C 62.71875 75.691406 61.375 74.347656 61.375 72.691406 L 61.375 54.238281 C 61.375 52.582031 62.71875 51.238281 64.375 51.238281 Z M 64.375 51.238281 " clip-rule="nonzero"/></clipPath><clipPath id="4f62172248"><path d="M 62 51.089844 L 85 51.089844 L 85 52 L 62 52 Z M 62 51.089844 " clip-rule="nonzero"/></clipPath><clipPath id="578dde6810"><path d="M 60.476562 53.339844 L 60.476562 73.589844 C 60.476562 75.246094 61.820312 76.589844 63.476562 76.589844 L 83.726562 76.589844 C 85.386719 76.589844 86.726562 75.246094 86.726562 73.589844 L 86.726562 53.339844 C 86.726562 51.683594 85.386719 50.339844 83.726562 50.339844 L 63.476562 50.339844 C 61.820312 50.339844 60.476562 51.683594 60.476562 53.339844 Z M 60.476562 53.339844 " clip-rule="nonzero"/></clipPath><clipPath id="9549c7c79d"><path d="M 64.375 51.238281 L 82.828125 51.238281 C 84.484375 51.238281 85.828125 52.582031 85.828125 54.238281 L 85.828125 72.691406 C 85.828125 74.347656 84.484375 75.691406 82.828125 75.691406 L 64.375 75.691406 C 62.71875 75.691406 61.375 74.347656 61.375 72.691406 L 61.375 54.238281 C 61.375 52.582031 62.71875 51.238281 64.375 51.238281 Z M 64.375 51.238281 " clip-rule="nonzero"/></clipPath><clipPath id="a7af561167"><path d="M 62 75 L 85 75 L 85 75.839844 L 62 75.839844 Z M 62 75 " clip-rule="nonzero"/></clipPath><clipPath id="704b089ecb"><path d="M 60.476562 53.339844 L 60.476562 73.589844 C 60.476562 75.246094 61.820312 76.589844 63.476562 76.589844 L 83.726562 76.589844 C 85.386719 76.589844 86.726562 75.246094 86.726562 73.589844 L 86.726562 53.339844 C 86.726562 51.683594 85.386719 50.339844 83.726562 50.339844 L 63.476562 50.339844 C 61.820312 50.339844 60.476562 51.683594 60.476562 53.339844 Z M 60.476562 53.339844 " clip-rule="nonzero"/></clipPath><clipPath id="99098807d1"><path d="M 64.375 51.238281 L 82.828125 51.238281 C 84.484375 51.238281 85.828125 52.582031 85.828125 54.238281 L 85.828125 72.691406 C 85.828125 74.347656 84.484375 75.691406 82.828125 75.691406 L 64.375 75.691406 C 62.71875 75.691406 61.375 74.347656 61.375 72.691406 L 61.375 54.238281 C 61.375 52.582031 62.71875 51.238281 64.375 51.238281 Z M 64.375 51.238281 " clip-rule="nonzero"/></clipPath><clipPath id="a092528200"><path d="M 84 51.089844 L 85.976562 51.089844 L 85.976562 53 L 84 53 Z M 84 51.089844 " clip-rule="nonzero"/></clipPath><clipPath id="28065b6b4c"><path d="M 60.476562 53.339844 L 60.476562 73.589844 C 60.476562 75.246094 61.820312 76.589844 63.476562 76.589844 L 83.726562 76.589844 C 85.386719 76.589844 86.726562 75.246094 86.726562 73.589844 L 86.726562 53.339844 C 86.726562 51.683594 85.386719 50.339844 83.726562 50.339844 L 63.476562 50.339844 C 61.820312 50.339844 60.476562 51.683594 60.476562 53.339844 Z M 60.476562 53.339844 " clip-rule="nonzero"/></clipPath><clipPath id="5560d8f924"><path d="M 64.375 51.238281 L 82.828125 51.238281 C 84.484375 51.238281 85.828125 52.582031 85.828125 54.238281 L 85.828125 72.691406 C 85.828125 74.347656 84.484375 75.691406 82.828125 75.691406 L 64.375 75.691406 C 62.71875 75.691406 61.375 74.347656 61.375 72.691406 L 61.375 54.238281 C 61.375 52.582031 62.71875 51.238281 64.375 51.238281 Z M 64.375 51.238281 " clip-rule="nonzero"/></clipPath><clipPath id="27d2da8ca0"><path d="M 61.226562 51.089844 L 63 51.089844 L 63 53 L 61.226562 53 Z M 61.226562 51.089844 " clip-rule="nonzero"/></clipPath><clipPath id="869357ac82"><path d="M 60.476562 53.339844 L 60.476562 73.589844 C 60.476562 75.246094 61.820312 76.589844 63.476562 76.589844 L 83.726562 76.589844 C 85.386719 76.589844 86.726562 75.246094 86.726562 73.589844 L 86.726562 53.339844 C 86.726562 51.683594 85.386719 50.339844 83.726562 50.339844 L 63.476562 50.339844 C 61.820312 50.339844 60.476562 51.683594 60.476562 53.339844 Z M 60.476562 53.339844 " clip-rule="nonzero"/></clipPath><clipPath id="9a69f68f5d"><path d="M 64.375 51.238281 L 82.828125 51.238281 C 84.484375 51.238281 85.828125 52.582031 85.828125 54.238281 L 85.828125 72.691406 C 85.828125 74.347656 84.484375 75.691406 82.828125 75.691406 L 64.375 75.691406 C 62.71875 75.691406 61.375 74.347656 61.375 72.691406 L 61.375 54.238281 C 61.375 52.582031 62.71875 51.238281 64.375 51.238281 Z M 64.375 51.238281 " clip-rule="nonzero"/></clipPath><clipPath id="dbc0898b92"><path d="M 84 74 L 85.976562 74 L 85.976562 75.839844 L 84 75.839844 Z M 84 74 " clip-rule="nonzero"/></clipPath><clipPath id="55a494d9ba"><path d="M 60.476562 53.339844 L 60.476562 73.589844 C 60.476562 75.246094 61.820312 76.589844 63.476562 76.589844 L 83.726562 76.589844 C 85.386719 76.589844 86.726562 75.246094 86.726562 73.589844 L 86.726562 53.339844 C 86.726562 51.683594 85.386719 50.339844 83.726562 50.339844 L 63.476562 50.339844 C 61.820312 50.339844 60.476562 51.683594 60.476562 53.339844 Z M 60.476562 53.339844 " clip-rule="nonzero"/></clipPath><clipPath id="f157eebbe2"><path d="M 64.375 51.238281 L 82.828125 51.238281 C 84.484375 51.238281 85.828125 52.582031 85.828125 54.238281 L 85.828125 72.691406 C 85.828125 74.347656 84.484375 75.691406 82.828125 75.691406 L 64.375 75.691406 C 62.71875 75.691406 61.375 74.347656 61.375 72.691406 L 61.375 54.238281 C 61.375 52.582031 62.71875 51.238281 64.375 51.238281 Z M 64.375 51.238281 " clip-rule="nonzero"/></clipPath><clipPath id="15bc28e8a7"><path d="M 61.226562 74 L 63 74 L 63 75.839844 L 61.226562 75.839844 Z M 61.226562 74 " clip-rule="nonzero"/></clipPath><clipPath id="441a490f32"><path d="M 60.476562 53.339844 L 60.476562 73.589844 C 60.476562 75.246094 61.820312 76.589844 63.476562 76.589844 L 83.726562 76.589844 C 85.386719 76.589844 86.726562 75.246094 86.726562 73.589844 L 86.726562 53.339844 C 86.726562 51.683594 85.386719 50.339844 83.726562 50.339844 L 63.476562 50.339844 C 61.820312 50.339844 60.476562 51.683594 60.476562 53.339844 Z M 60.476562 53.339844 " clip-rule="nonzero"/></clipPath><clipPath id="e106a6ec6e"><path d="M 64.375 51.238281 L 82.828125 51.238281 C 84.484375 51.238281 85.828125 52.582031 85.828125 54.238281 L 85.828125 72.691406 C 85.828125 74.347656 84.484375 75.691406 82.828125 75.691406 L 64.375 75.691406 C 62.71875 75.691406 61.375 74.347656 61.375 72.691406 L 61.375 54.238281 C 61.375 52.582031 62.71875 51.238281 64.375 51.238281 Z M 64.375 51.238281 " clip-rule="nonzero"/></clipPath><clipPath id="03822b322f"><path d="M 60.476562 50.339844 L 86.726562 50.339844 L 86.726562 76.589844 L 60.476562 76.589844 Z M 60.476562 50.339844 " clip-rule="nonzero"/></clipPath><clipPath id="3c54ae426d"><path d="M 60.476562 53.339844 L 60.476562 73.589844 C 60.476562 75.246094 61.820312 76.589844 63.476562 76.589844 L 83.726562 76.589844 C 85.386719 76.589844 86.726562 75.246094 86.726562 73.589844 L 86.726562 53.339844 C 86.726562 51.683594 85.386719 50.339844 83.726562 50.339844 L 63.476562 50.339844 C 61.820312 50.339844 60.476562 51.683594 60.476562 53.339844 Z M 60.476562 53.339844 " clip-rule="nonzero"/></clipPath><clipPath id="a9f8bf5524"><path d="M 60.476562 53.339844 L 60.476562 73.589844 C 60.476562 75.246094 61.820312 76.589844 63.476562 76.589844 L 83.726562 76.589844 C 85.382812 76.589844 86.726562 75.246094 86.726562 73.589844 L 86.726562 53.339844 C 86.726562 51.683594 85.382812 50.339844 83.726562 50.339844 L 63.476562 50.339844 C 61.820312 50.339844 60.476562 51.683594 60.476562 53.339844 Z M 60.476562 53.339844 " clip-rule="nonzero"/></clipPath><clipPath id="71bad8a3a6"><path d="M 85 81 L 85.976562 81 L 85.976562 103 L 85 103 Z M 85 81 " clip-rule="nonzero"/></clipPath><clipPath id="04d4776db6"><path d="M 60.476562 82.847656 L 60.476562 101.601562 C 60.476562 102.59375 60.871094 103.550781 61.574219 104.253906 C 62.277344 104.957031 63.230469 105.351562 64.226562 105.351562 L 82.976562 105.351562 C 85.050781 105.351562 86.726562 103.671875 86.726562 101.601562 L 86.726562 82.847656 C 86.726562 81.855469 86.332031 80.902344 85.628906 80.199219 C 84.925781 79.492188 83.972656 79.097656 82.976562 79.097656 L 64.226562 79.097656 C 62.15625 79.097656 60.476562 80.777344 60.476562 82.847656 Z M 60.476562 82.847656 " clip-rule="nonzero"/></clipPath><clipPath id="48d64ab562"><path d="M 65.125 80 L 82.078125 80 C 84.148438 80 85.828125 81.679688 85.828125 83.75 L 85.828125 100.699219 C 85.828125 102.773438 84.148438 104.449219 82.078125 104.449219 L 65.125 104.449219 C 63.054688 104.449219 61.375 102.773438 61.375 100.699219 L 61.375 83.75 C 61.375 81.679688 63.054688 80 65.125 80 Z M 65.125 80 " clip-rule="nonzero"/></clipPath><clipPath id="a8c3d43edf"><path d="M 61.226562 81 L 62 81 L 62 103 L 61.226562 103 Z M 61.226562 81 " clip-rule="nonzero"/></clipPath><clipPath id="aa22896741"><path d="M 60.476562 82.847656 L 60.476562 101.601562 C 60.476562 102.59375 60.871094 103.550781 61.574219 104.253906 C 62.277344 104.957031 63.230469 105.351562 64.226562 105.351562 L 82.976562 105.351562 C 85.050781 105.351562 86.726562 103.671875 86.726562 101.601562 L 86.726562 82.847656 C 86.726562 81.855469 86.332031 80.902344 85.628906 80.199219 C 84.925781 79.492188 83.972656 79.097656 82.976562 79.097656 L 64.226562 79.097656 C 62.15625 79.097656 60.476562 80.777344 60.476562 82.847656 Z M 60.476562 82.847656 " clip-rule="nonzero"/></clipPath><clipPath id="a044938f43"><path d="M 65.125 80 L 82.078125 80 C 84.148438 80 85.828125 81.679688 85.828125 83.75 L 85.828125 100.699219 C 85.828125 102.773438 84.148438 104.449219 82.078125 104.449219 L 65.125 104.449219 C 63.054688 104.449219 61.375 102.773438 61.375 100.699219 L 61.375 83.75 C 61.375 81.679688 63.054688 80 65.125 80 Z M 65.125 80 " clip-rule="nonzero"/></clipPath><clipPath id="6bead51567"><path d="M 62 104 L 85 104 L 85 104.597656 L 62 104.597656 Z M 62 104 " clip-rule="nonzero"/></clipPath><clipPath id="12ec2d03a2"><path d="M 60.476562 82.847656 L 60.476562 101.601562 C 60.476562 102.59375 60.871094 103.550781 61.574219 104.253906 C 62.277344 104.957031 63.230469 105.351562 64.226562 105.351562 L 82.976562 105.351562 C 85.050781 105.351562 86.726562 103.671875 86.726562 101.601562 L 86.726562 82.847656 C 86.726562 81.855469 86.332031 80.902344 85.628906 80.199219 C 84.925781 79.492188 83.972656 79.097656 82.976562 79.097656 L 64.226562 79.097656 C 62.15625 79.097656 60.476562 80.777344 60.476562 82.847656 Z M 60.476562 82.847656 " clip-rule="nonzero"/></clipPath><clipPath id="4cad8f95db"><path d="M 65.125 80 L 82.078125 80 C 84.148438 80 85.828125 81.679688 85.828125 83.75 L 85.828125 100.699219 C 85.828125 102.773438 84.148438 104.449219 82.078125 104.449219 L 65.125 104.449219 C 63.054688 104.449219 61.375 102.773438 61.375 100.699219 L 61.375 83.75 C 61.375 81.679688 63.054688 80 65.125 80 Z M 65.125 80 " clip-rule="nonzero"/></clipPath><clipPath id="a700bb9d56"><path d="M 84 80 L 85.976562 80 L 85.976562 82 L 84 82 Z M 84 80 " clip-rule="nonzero"/></clipPath><clipPath id="6883558df0"><path d="M 60.476562 82.847656 L 60.476562 101.601562 C 60.476562 102.59375 60.871094 103.550781 61.574219 104.253906 C 62.277344 104.957031 63.230469 105.351562 64.226562 105.351562 L 82.976562 105.351562 C 85.050781 105.351562 86.726562 103.671875 86.726562 101.601562 L 86.726562 82.847656 C 86.726562 81.855469 86.332031 80.902344 85.628906 80.199219 C 84.925781 79.492188 83.972656 79.097656 82.976562 79.097656 L 64.226562 79.097656 C 62.15625 79.097656 60.476562 80.777344 60.476562 82.847656 Z M 60.476562 82.847656 " clip-rule="nonzero"/></clipPath><clipPath id="ec523dc68f"><path d="M 65.125 80 L 82.078125 80 C 84.148438 80 85.828125 81.679688 85.828125 83.75 L 85.828125 100.699219 C 85.828125 102.773438 84.148438 104.449219 82.078125 104.449219 L 65.125 104.449219 C 63.054688 104.449219 61.375 102.773438 61.375 100.699219 L 61.375 83.75 C 61.375 81.679688 63.054688 80 65.125 80 Z M 65.125 80 " clip-rule="nonzero"/></clipPath><clipPath id="5be36063f1"><path d="M 61.226562 80 L 63 80 L 63 82 L 61.226562 82 Z M 61.226562 80 " clip-rule="nonzero"/></clipPath><clipPath id="da7a37f82f"><path d="M 60.476562 82.847656 L 60.476562 101.601562 C 60.476562 102.59375 60.871094 103.550781 61.574219 104.253906 C 62.277344 104.957031 63.230469 105.351562 64.226562 105.351562 L 82.976562 105.351562 C 85.050781 105.351562 86.726562 103.671875 86.726562 101.601562 L 86.726562 82.847656 C 86.726562 81.855469 86.332031 80.902344 85.628906 80.199219 C 84.925781 79.492188 83.972656 79.097656 82.976562 79.097656 L 64.226562 79.097656 C 62.15625 79.097656 60.476562 80.777344 60.476562 82.847656 Z M 60.476562 82.847656 " clip-rule="nonzero"/></clipPath><clipPath id="291275be62"><path d="M 65.125 80 L 82.078125 80 C 84.148438 80 85.828125 81.679688 85.828125 83.75 L 85.828125 100.699219 C 85.828125 102.773438 84.148438 104.449219 82.078125 104.449219 L 65.125 104.449219 C 63.054688 104.449219 61.375 102.773438 61.375 100.699219 L 61.375 83.75 C 61.375 81.679688 63.054688 80 65.125 80 Z M 65.125 80 " clip-rule="nonzero"/></clipPath><clipPath id="fe9003fb4b"><path d="M 84 102 L 85.976562 102 L 85.976562 104.597656 L 84 104.597656 Z M 84 102 " clip-rule="nonzero"/></clipPath><clipPath id="4e1686d5ff"><path d="M 60.476562 82.847656 L 60.476562 101.601562 C 60.476562 102.59375 60.871094 103.550781 61.574219 104.253906 C 62.277344 104.957031 63.230469 105.351562 64.226562 105.351562 L 82.976562 105.351562 C 85.050781 105.351562 86.726562 103.671875 86.726562 101.601562 L 86.726562 82.847656 C 86.726562 81.855469 86.332031 80.902344 85.628906 80.199219 C 84.925781 79.492188 83.972656 79.097656 82.976562 79.097656 L 64.226562 79.097656 C 62.15625 79.097656 60.476562 80.777344 60.476562 82.847656 Z M 60.476562 82.847656 " clip-rule="nonzero"/></clipPath><clipPath id="35ce694437"><path d="M 65.125 80 L 82.078125 80 C 84.148438 80 85.828125 81.679688 85.828125 83.75 L 85.828125 100.699219 C 85.828125 102.773438 84.148438 104.449219 82.078125 104.449219 L 65.125 104.449219 C 63.054688 104.449219 61.375 102.773438 61.375 100.699219 L 61.375 83.75 C 61.375 81.679688 63.054688 80 65.125 80 Z M 65.125 80 " clip-rule="nonzero"/></clipPath><clipPath id="5dac44b067"><path d="M 61.226562 102 L 63 102 L 63 104.597656 L 61.226562 104.597656 Z M 61.226562 102 " clip-rule="nonzero"/></clipPath><clipPath id="facda36eb4"><path d="M 60.476562 82.847656 L 60.476562 101.601562 C 60.476562 102.59375 60.871094 103.550781 61.574219 104.253906 C 62.277344 104.957031 63.230469 105.351562 64.226562 105.351562 L 82.976562 105.351562 C 85.050781 105.351562 86.726562 103.671875 86.726562 101.601562 L 86.726562 82.847656 C 86.726562 81.855469 86.332031 80.902344 85.628906 80.199219 C 84.925781 79.492188 83.972656 79.097656 82.976562 79.097656 L 64.226562 79.097656 C 62.15625 79.097656 60.476562 80.777344 60.476562 82.847656 Z M 60.476562 82.847656 " clip-rule="nonzero"/></clipPath><clipPath id="aaaba691cd"><path d="M 65.125 80 L 82.078125 80 C 84.148438 80 85.828125 81.679688 85.828125 83.75 L 85.828125 100.699219 C 85.828125 102.773438 84.148438 104.449219 82.078125 104.449219 L 65.125 104.449219 C 63.054688 104.449219 61.375 102.773438 61.375 100.699219 L 61.375 83.75 C 61.375 81.679688 63.054688 80 65.125 80 Z M 65.125 80 " clip-rule="nonzero"/></clipPath><clipPath id="ce99ecd85a"><path d="M 60.476562 79.097656 L 86.726562 79.097656 L 86.726562 105.347656 L 60.476562 105.347656 Z M 60.476562 79.097656 " clip-rule="nonzero"/></clipPath><clipPath id="cee1885fdc"><path d="M 60.476562 82.847656 L 60.476562 101.601562 C 60.476562 102.59375 60.871094 103.550781 61.574219 104.253906 C 62.277344 104.957031 63.230469 105.351562 64.226562 105.351562 L 82.976562 105.351562 C 85.050781 105.351562 86.726562 103.671875 86.726562 101.601562 L 86.726562 82.847656 C 86.726562 81.855469 86.332031 80.902344 85.628906 80.199219 C 84.925781 79.492188 83.972656 79.097656 82.976562 79.097656 L 64.226562 79.097656 C 62.15625 79.097656 60.476562 80.777344 60.476562 82.847656 Z M 60.476562 82.847656 " clip-rule="nonzero"/></clipPath><clipPath id="6f4b2e4bd2"><path d="M 60.476562 82.847656 L 60.476562 101.597656 C 60.476562 102.59375 60.871094 103.546875 61.574219 104.25 C 62.277344 104.953125 63.230469 105.347656 64.226562 105.347656 L 82.976562 105.347656 C 85.046875 105.347656 86.726562 103.671875 86.726562 101.597656 L 86.726562 82.847656 C 86.726562 81.855469 86.332031 80.902344 85.628906 80.195312 C 84.925781 79.492188 83.972656 79.097656 82.976562 79.097656 L 64.226562 79.097656 C 62.15625 79.097656 60.476562 80.777344 60.476562 82.847656 Z M 60.476562 82.847656 " clip-rule="nonzero"/></clipPath><clipPath id="7596a6abef"><path d="M 114 81 L 114.738281 81 L 114.738281 103 L 114 103 Z M 114 81 " clip-rule="nonzero"/></clipPath><clipPath id="1cc30d6bc5"><path d="M 89.238281 82.847656 L 89.238281 101.601562 C 89.238281 102.59375 89.632812 103.550781 90.335938 104.253906 C 91.039062 104.957031 91.992188 105.351562 92.988281 105.351562 L 111.738281 105.351562 C 113.808594 105.351562 115.488281 103.671875 115.488281 101.601562 L 115.488281 82.847656 C 115.488281 81.855469 115.09375 80.902344 114.390625 80.199219 C 113.6875 79.492188 112.734375 79.097656 111.738281 79.097656 L 92.988281 79.097656 C 90.914062 79.097656 89.238281 80.777344 89.238281 82.847656 Z M 89.238281 82.847656 " clip-rule="nonzero"/></clipPath><clipPath id="b0a16995bb"><path d="M 93.886719 80 L 110.839844 80 C 112.910156 80 114.589844 81.679688 114.589844 83.75 L 114.589844 100.699219 C 114.589844 102.773438 112.910156 104.449219 110.839844 104.449219 L 93.886719 104.449219 C 91.816406 104.449219 90.136719 102.773438 90.136719 100.699219 L 90.136719 83.75 C 90.136719 81.679688 91.816406 80 93.886719 80 Z M 93.886719 80 " clip-rule="nonzero"/></clipPath><clipPath id="5e23ebfde2"><path d="M 90 81 L 91 81 L 91 103 L 90 103 Z M 90 81 " clip-rule="nonzero"/></clipPath><clipPath id="81da9f0c27"><path d="M 89.238281 82.847656 L 89.238281 101.601562 C 89.238281 102.59375 89.632812 103.550781 90.335938 104.253906 C 91.039062 104.957031 91.992188 105.351562 92.988281 105.351562 L 111.738281 105.351562 C 113.808594 105.351562 115.488281 103.671875 115.488281 101.601562 L 115.488281 82.847656 C 115.488281 81.855469 115.09375 80.902344 114.390625 80.199219 C 113.6875 79.492188 112.734375 79.097656 111.738281 79.097656 L 92.988281 79.097656 C 90.914062 79.097656 89.238281 80.777344 89.238281 82.847656 Z M 89.238281 82.847656 " clip-rule="nonzero"/></clipPath><clipPath id="e764cb1d4a"><path d="M 93.886719 80 L 110.839844 80 C 112.910156 80 114.589844 81.679688 114.589844 83.75 L 114.589844 100.699219 C 114.589844 102.773438 112.910156 104.449219 110.839844 104.449219 L 93.886719 104.449219 C 91.816406 104.449219 90.136719 102.773438 90.136719 100.699219 L 90.136719 83.75 C 90.136719 81.679688 91.816406 80 93.886719 80 Z M 93.886719 80 " clip-rule="nonzero"/></clipPath><clipPath id="dd29d815f6"><path d="M 91 104 L 114 104 L 114 104.597656 L 91 104.597656 Z M 91 104 " clip-rule="nonzero"/></clipPath><clipPath id="75c458f9d0"><path d="M 89.238281 82.847656 L 89.238281 101.601562 C 89.238281 102.59375 89.632812 103.550781 90.335938 104.253906 C 91.039062 104.957031 91.992188 105.351562 92.988281 105.351562 L 111.738281 105.351562 C 113.808594 105.351562 115.488281 103.671875 115.488281 101.601562 L 115.488281 82.847656 C 115.488281 81.855469 115.09375 80.902344 114.390625 80.199219 C 113.6875 79.492188 112.734375 79.097656 111.738281 79.097656 L 92.988281 79.097656 C 90.914062 79.097656 89.238281 80.777344 89.238281 82.847656 Z M 89.238281 82.847656 " clip-rule="nonzero"/></clipPath><clipPath id="bd5b9dce5b"><path d="M 93.886719 80 L 110.839844 80 C 112.910156 80 114.589844 81.679688 114.589844 83.75 L 114.589844 100.699219 C 114.589844 102.773438 112.910156 104.449219 110.839844 104.449219 L 93.886719 104.449219 C 91.816406 104.449219 90.136719 102.773438 90.136719 100.699219 L 90.136719 83.75 C 90.136719 81.679688 91.816406 80 93.886719 80 Z M 93.886719 80 " clip-rule="nonzero"/></clipPath><clipPath id="94fc47c0a9"><path d="M 113 80 L 114.738281 80 L 114.738281 82 L 113 82 Z M 113 80 " clip-rule="nonzero"/></clipPath><clipPath id="9cb7a95f7e"><path d="M 89.238281 82.847656 L 89.238281 101.601562 C 89.238281 102.59375 89.632812 103.550781 90.335938 104.253906 C 91.039062 104.957031 91.992188 105.351562 92.988281 105.351562 L 111.738281 105.351562 C 113.808594 105.351562 115.488281 103.671875 115.488281 101.601562 L 115.488281 82.847656 C 115.488281 81.855469 115.09375 80.902344 114.390625 80.199219 C 113.6875 79.492188 112.734375 79.097656 111.738281 79.097656 L 92.988281 79.097656 C 90.914062 79.097656 89.238281 80.777344 89.238281 82.847656 Z M 89.238281 82.847656 " clip-rule="nonzero"/></clipPath><clipPath id="67cc51181a"><path d="M 93.886719 80 L 110.839844 80 C 112.910156 80 114.589844 81.679688 114.589844 83.75 L 114.589844 100.699219 C 114.589844 102.773438 112.910156 104.449219 110.839844 104.449219 L 93.886719 104.449219 C 91.816406 104.449219 90.136719 102.773438 90.136719 100.699219 L 90.136719 83.75 C 90.136719 81.679688 91.816406 80 93.886719 80 Z M 93.886719 80 " clip-rule="nonzero"/></clipPath><clipPath id="e417b89cfe"><path d="M 90 80 L 92 80 L 92 82 L 90 82 Z M 90 80 " clip-rule="nonzero"/></clipPath><clipPath id="ad5f4b5e6e"><path d="M 89.238281 82.847656 L 89.238281 101.601562 C 89.238281 102.59375 89.632812 103.550781 90.335938 104.253906 C 91.039062 104.957031 91.992188 105.351562 92.988281 105.351562 L 111.738281 105.351562 C 113.808594 105.351562 115.488281 103.671875 115.488281 101.601562 L 115.488281 82.847656 C 115.488281 81.855469 115.09375 80.902344 114.390625 80.199219 C 113.6875 79.492188 112.734375 79.097656 111.738281 79.097656 L 92.988281 79.097656 C 90.914062 79.097656 89.238281 80.777344 89.238281 82.847656 Z M 89.238281 82.847656 " clip-rule="nonzero"/></clipPath><clipPath id="fe6ca95d0c"><path d="M 93.886719 80 L 110.839844 80 C 112.910156 80 114.589844 81.679688 114.589844 83.75 L 114.589844 100.699219 C 114.589844 102.773438 112.910156 104.449219 110.839844 104.449219 L 93.886719 104.449219 C 91.816406 104.449219 90.136719 102.773438 90.136719 100.699219 L 90.136719 83.75 C 90.136719 81.679688 91.816406 80 93.886719 80 Z M 93.886719 80 " clip-rule="nonzero"/></clipPath><clipPath id="6706f56175"><path d="M 113 102 L 114.738281 102 L 114.738281 104.597656 L 113 104.597656 Z M 113 102 " clip-rule="nonzero"/></clipPath><clipPath id="8d74904d75"><path d="M 89.238281 82.847656 L 89.238281 101.601562 C 89.238281 102.59375 89.632812 103.550781 90.335938 104.253906 C 91.039062 104.957031 91.992188 105.351562 92.988281 105.351562 L 111.738281 105.351562 C 113.808594 105.351562 115.488281 103.671875 115.488281 101.601562 L 115.488281 82.847656 C 115.488281 81.855469 115.09375 80.902344 114.390625 80.199219 C 113.6875 79.492188 112.734375 79.097656 111.738281 79.097656 L 92.988281 79.097656 C 90.914062 79.097656 89.238281 80.777344 89.238281 82.847656 Z M 89.238281 82.847656 " clip-rule="nonzero"/></clipPath><clipPath id="49177b3d95"><path d="M 93.886719 80 L 110.839844 80 C 112.910156 80 114.589844 81.679688 114.589844 83.75 L 114.589844 100.699219 C 114.589844 102.773438 112.910156 104.449219 110.839844 104.449219 L 93.886719 104.449219 C 91.816406 104.449219 90.136719 102.773438 90.136719 100.699219 L 90.136719 83.75 C 90.136719 81.679688 91.816406 80 93.886719 80 Z M 93.886719 80 " clip-rule="nonzero"/></clipPath><clipPath id="eb564b762b"><path d="M 90 102 L 92 102 L 92 104.597656 L 90 104.597656 Z M 90 102 " clip-rule="nonzero"/></clipPath><clipPath id="494b54f086"><path d="M 89.238281 82.847656 L 89.238281 101.601562 C 89.238281 102.59375 89.632812 103.550781 90.335938 104.253906 C 91.039062 104.957031 91.992188 105.351562 92.988281 105.351562 L 111.738281 105.351562 C 113.808594 105.351562 115.488281 103.671875 115.488281 101.601562 L 115.488281 82.847656 C 115.488281 81.855469 115.09375 80.902344 114.390625 80.199219 C 113.6875 79.492188 112.734375 79.097656 111.738281 79.097656 L 92.988281 79.097656 C 90.914062 79.097656 89.238281 80.777344 89.238281 82.847656 Z M 89.238281 82.847656 " clip-rule="nonzero"/></clipPath><clipPath id="af3bba6d1e"><path d="M 93.886719 80 L 110.839844 80 C 112.910156 80 114.589844 81.679688 114.589844 83.75 L 114.589844 100.699219 C 114.589844 102.773438 112.910156 104.449219 110.839844 104.449219 L 93.886719 104.449219 C 91.816406 104.449219 90.136719 102.773438 90.136719 100.699219 L 90.136719 83.75 C 90.136719 81.679688 91.816406 80 93.886719 80 Z M 93.886719 80 " clip-rule="nonzero"/></clipPath><clipPath id="a37a468e64"><path d="M 89.238281 79.097656 L 115.488281 79.097656 L 115.488281 105.347656 L 89.238281 105.347656 Z M 89.238281 79.097656 " clip-rule="nonzero"/></clipPath><clipPath id="d7191eff6f"><path d="M 89.238281 82.847656 L 89.238281 101.601562 C 89.238281 102.59375 89.632812 103.550781 90.335938 104.253906 C 91.039062 104.957031 91.992188 105.351562 92.988281 105.351562 L 111.738281 105.351562 C 113.808594 105.351562 115.488281 103.671875 115.488281 101.601562 L 115.488281 82.847656 C 115.488281 81.855469 115.09375 80.902344 114.390625 80.199219 C 113.6875 79.492188 112.734375 79.097656 111.738281 79.097656 L 92.988281 79.097656 C 90.914062 79.097656 89.238281 80.777344 89.238281 82.847656 Z M 89.238281 82.847656 " clip-rule="nonzero"/></clipPath><clipPath id="7c55cb4179"><path d="M 89.238281 82.847656 L 89.238281 101.597656 C 89.238281 102.59375 89.632812 103.546875 90.335938 104.25 C 91.039062 104.953125 91.992188 105.347656 92.988281 105.347656 L 111.738281 105.347656 C 113.808594 105.347656 115.488281 103.671875 115.488281 101.597656 L 115.488281 82.847656 C 115.488281 81.855469 115.089844 80.902344 114.386719 80.195312 C 113.683594 79.492188 112.730469 79.097656 111.738281 79.097656 L 92.988281 79.097656 C 90.914062 79.097656 89.238281 80.777344 89.238281 82.847656 Z M 89.238281 82.847656 " clip-rule="nonzero"/></clipPath><clipPath id="1de8a55f80"><path d="M 0.238281 0.339844 L 26.679688 0.339844 L 26.679688 26.800781 L 0.238281 26.800781 Z M 0.238281 0.339844 " clip-rule="nonzero"/></clipPath><clipPath id="1c6628fd56"><path d="M 0.238281 4.089844 L 0.238281 22.839844 C 0.238281 23.835938 0.632812 24.789062 1.335938 25.492188 C 2.039062 26.195312 2.992188 26.589844 3.988281 26.589844 L 22.738281 26.589844 C 23.734375 26.589844 24.6875 26.195312 25.390625 25.492188 C 26.09375 24.789062 26.488281 23.835938 26.488281 22.839844 L 26.488281 4.089844 C 26.488281 3.09375 26.09375 2.140625 25.390625 1.4375 C 24.6875 0.734375 23.734375 0.339844 22.738281 0.339844 L 3.988281 0.339844 C 2.992188 0.339844 2.039062 0.734375 1.335938 1.4375 C 0.632812 2.140625 0.238281 3.09375 0.238281 4.089844 Z M 0.238281 4.089844 " clip-rule="nonzero"/></clipPath><clipPath id="1a3f341e66"><path d="M 7.238281 2.40625 L 19.378906 2.40625 L 19.378906 25 L 7.238281 25 Z M 7.238281 2.40625 " clip-rule="nonzero"/></clipPath><clipPath id="03e0ca86fc"><rect x="0" width="27" y="0" height="27"/></clipPath></defs><g clip-path="url(#5d0bcca82e)"><g clip-path="url(#74a0550f95)"><path fill="#ffffff" d="M 57.902344 92.320312 C 57.761719 92.554688 57.519531 92.691406 57.285156 92.824219 C 57.382812 92.96875 57.378906 93.164062 57.335938 93.332031 C 57.289062 93.503906 57.210938 93.664062 57.164062 93.835938 C 57.117188 94.003906 57.128906 94.230469 57.230469 94.375 C 57.09375 94.382812 56.980469 94.492188 56.921875 94.617188 C 56.867188 94.742188 56.859375 94.882812 56.847656 95.015625 C 56.835938 95.152344 56.816406 95.292969 56.746094 95.410156 L 56.75 95.410156 C 56.945312 95.488281 57.148438 95.570312 57.289062 95.730469 C 57.328125 95.777344 57.363281 95.832031 57.382812 95.886719 C 57.429688 96.019531 57.410156 96.167969 57.359375 96.296875 C 57.304688 96.425781 57.21875 96.539062 57.132812 96.652344 C 57.242188 96.761719 57.421875 96.886719 57.472656 97.03125 C 57.503906 97.125 57.507812 97.226562 57.523438 97.324219 C 57.570312 97.671875 57.753906 98 57.742188 98.351562 C 57.742188 98.386719 57.714844 98.417969 57.683594 98.433594 C 57.65625 98.453125 57.621094 98.464844 57.589844 98.480469 C 57.480469 98.535156 57.421875 98.660156 57.398438 98.78125 C 57.375 98.902344 57.378906 99.027344 57.355469 99.144531 C 57.300781 99.390625 57.113281 99.589844 56.953125 99.78125 C 57.039062 99.890625 57.128906 100.003906 57.179688 100.136719 C 57.230469 100.269531 57.238281 100.425781 57.160156 100.546875 C 57.070312 100.695312 56.847656 100.765625 56.679688 100.808594 C 56.804688 100.929688 56.933594 101.0625 56.960938 101.230469 C 56.976562 101.351562 56.941406 101.472656 56.953125 101.589844 C 56.96875 101.691406 57.019531 101.785156 57.085938 101.863281 C 57.152344 101.945312 57.234375 102.007812 57.316406 102.074219 C 57.167969 102.292969 57.183594 102.605469 57.253906 102.855469 C 57.320312 103.109375 57.441406 103.34375 57.507812 103.597656 C 57.59375 103.921875 57.589844 104.269531 57.492188 104.589844 C 57.058594 104.691406 56.554688 104.691406 56.132812 104.546875 C 55.9375 104.480469 55.753906 104.390625 55.550781 104.347656 C 55.351562 104.304688 55.109375 104.308594 54.945312 104.433594 C 54.871094 104.308594 54.757812 104.210938 54.621094 104.160156 C 54.46875 104.097656 54.296875 104.09375 54.132812 104.066406 C 53.96875 104.042969 53.785156 103.96875 53.691406 103.832031 C 53.652344 104.003906 53.570312 104.167969 53.457031 104.304688 C 53.414062 104.355469 53.363281 104.402344 53.300781 104.410156 C 53.253906 104.417969 53.207031 104.402344 53.164062 104.382812 C 52.992188 104.320312 52.828125 104.21875 52.679688 104.113281 C 52.589844 104.109375 52.511719 104.167969 52.453125 104.230469 C 52.390625 104.292969 52.339844 104.367188 52.265625 104.414062 C 52.074219 104.53125 51.816406 104.4375 51.609375 104.519531 C 51.4375 104.585938 51.292969 104.75 51.199219 104.90625 C 51.136719 104.855469 51.058594 104.839844 50.980469 104.832031 C 50.898438 104.824219 50.820312 104.828125 50.746094 104.8125 C 50.628906 104.785156 50.527344 104.71875 50.417969 104.679688 C 50.257812 104.628906 50.082031 104.644531 49.925781 104.59375 C 49.746094 104.535156 49.605469 104.394531 49.472656 104.261719 C 49.304688 104.386719 49.226562 104.414062 49.035156 104.492188 C 48.957031 104.519531 48.871094 104.546875 48.792969 104.527344 C 48.722656 104.511719 48.667969 104.464844 48.621094 104.414062 C 48.476562 104.273438 48.359375 104.085938 48.277344 103.898438 C 48.066406 104.007812 47.804688 103.929688 47.578125 104 C 47.421875 104.050781 47.277344 104.183594 47.222656 104.34375 C 47.109375 104.234375 46.925781 104.230469 46.777344 104.277344 C 46.625 104.324219 46.488281 104.410156 46.339844 104.457031 C 46.132812 104.523438 45.90625 104.507812 45.710938 104.421875 L 45.710938 104.378906 C 45.636719 104.660156 45.4375 104.90625 45.175781 105.03125 C 45.101562 105.070312 45.019531 105.09375 44.9375 105.082031 C 44.871094 105.070312 44.808594 105.035156 44.753906 104.996094 C 44.550781 104.847656 44.375 104.660156 44.246094 104.445312 C 44.011719 104.484375 43.777344 104.523438 43.558594 104.429688 C 43.449219 104.382812 43.351562 104.304688 43.238281 104.261719 C 43.0625 104.195312 42.851562 104.238281 42.710938 104.367188 C 42.683594 104.230469 42.566406 104.117188 42.441406 104.0625 C 42.3125 104.003906 42.175781 103.988281 42.035156 103.976562 C 41.898438 103.960938 41.757812 103.945312 41.632812 103.886719 C 41.609375 104.085938 41.53125 104.242188 41.394531 104.390625 C 41.339844 104.453125 41.273438 104.507812 41.191406 104.519531 C 41.140625 104.527344 41.085938 104.519531 41.035156 104.503906 C 40.851562 104.453125 40.675781 104.371094 40.523438 104.257812 C 40.269531 104.34375 40.121094 104.609375 39.859375 104.667969 C 39.738281 104.695312 39.609375 104.667969 39.484375 104.695312 C 39.390625 104.71875 39.304688 104.769531 39.207031 104.796875 C 39.042969 104.84375 38.855469 104.824219 38.703125 104.910156 C 38.625 104.734375 38.433594 104.589844 38.25 104.535156 C 38.140625 104.503906 38.023438 104.5 37.910156 104.476562 C 37.695312 104.433594 37.460938 104.265625 37.332031 104.089844 C 37.238281 104.179688 37.21875 104.195312 37.105469 104.261719 C 36.992188 104.328125 36.859375 104.367188 36.730469 104.347656 C 36.613281 104.332031 36.503906 104.261719 36.429688 104.171875 C 36.351562 104.082031 36.292969 103.929688 36.277344 103.808594 C 36.175781 103.96875 35.996094 104.066406 35.808594 104.085938 C 35.683594 104.097656 35.554688 104.078125 35.429688 104.101562 C 35.253906 104.132812 35.070312 104.28125 34.996094 104.445312 C 34.839844 104.332031 34.632812 104.316406 34.441406 104.34375 C 34.136719 104.386719 33.847656 104.519531 33.550781 104.597656 C 33.207031 104.691406 32.722656 104.695312 32.449219 104.589844 C 32.355469 104.269531 32.351562 103.921875 32.433594 103.597656 C 32.503906 103.347656 32.625 103.109375 32.691406 102.855469 C 32.757812 102.605469 32.773438 102.292969 32.628906 102.074219 C 32.710938 102.011719 32.789062 101.945312 32.855469 101.867188 C 32.921875 101.785156 32.976562 101.691406 32.988281 101.589844 C 33.003906 101.472656 32.964844 101.351562 32.984375 101.230469 C 33.007812 101.0625 33.140625 100.929688 33.265625 100.808594 C 33.09375 100.765625 32.875 100.695312 32.78125 100.546875 C 32.707031 100.425781 32.710938 100.269531 32.761719 100.136719 C 32.8125 100.003906 32.902344 99.890625 32.992188 99.78125 C 32.828125 99.589844 32.640625 99.390625 32.589844 99.144531 C 32.5625 99.027344 32.570312 98.902344 32.546875 98.78125 C 32.523438 98.660156 32.464844 98.535156 32.355469 98.480469 C 32.324219 98.464844 32.289062 98.453125 32.257812 98.4375 C 32.226562 98.417969 32.203125 98.386719 32.199219 98.351562 C 32.1875 98 32.371094 97.671875 32.421875 97.324219 C 32.4375 97.226562 32.4375 97.125 32.46875 97.03125 C 32.519531 96.886719 32.699219 96.761719 32.808594 96.652344 C 32.726562 96.542969 32.640625 96.429688 32.585938 96.296875 C 32.53125 96.167969 32.511719 96.019531 32.5625 95.886719 C 32.582031 95.832031 32.617188 95.777344 32.65625 95.730469 C 32.792969 95.574219 33 95.488281 33.195312 95.410156 L 33.199219 95.410156 C 33.125 95.292969 33.109375 95.152344 33.097656 95.019531 C 33.085938 94.882812 33.074219 94.742188 33.019531 94.617188 C 32.964844 94.492188 32.851562 94.382812 32.714844 94.378906 C 32.8125 94.230469 32.824219 94.003906 32.78125 93.835938 C 32.734375 93.664062 32.652344 93.503906 32.609375 93.335938 C 32.5625 93.164062 32.558594 92.96875 32.660156 92.824219 C 32.421875 92.691406 32.183594 92.554688 32.042969 92.320312 C 31.988281 92.234375 31.949219 92.128906 31.96875 92.03125 C 31.984375 91.953125 32.027344 91.886719 32.074219 91.824219 C 32.152344 91.726562 32.242188 91.632812 32.339844 91.554688 C 32.410156 91.503906 32.480469 91.453125 32.53125 91.386719 C 32.585938 91.320312 32.617188 91.230469 32.589844 91.148438 C 32.574219 91.015625 32.578125 90.851562 32.621094 90.722656 C 32.667969 90.578125 32.773438 90.460938 32.816406 90.3125 C 32.867188 90.148438 32.828125 89.953125 32.714844 89.820312 C 32.792969 89.789062 32.878906 89.75 32.933594 89.6875 C 32.984375 89.628906 33.011719 89.550781 33.03125 89.476562 C 33.085938 89.265625 33.105469 89.046875 33.125 88.828125 C 33.128906 88.808594 33.128906 88.785156 33.117188 88.765625 C 33.105469 88.746094 33.035156 88.730469 33.023438 88.746094 C 32.78125 88.6875 32.585938 88.480469 32.539062 88.234375 C 32.496094 87.992188 32.609375 87.726562 32.816406 87.589844 C 32.636719 87.476562 32.511719 87.28125 32.445312 87.078125 C 32.382812 86.875 32.359375 86.664062 32.328125 86.453125 C 32.296875 86.242188 32.25 86.03125 32.140625 85.847656 C 32.3125 85.722656 32.496094 85.597656 32.550781 85.398438 C 32.59375 85.257812 32.582031 85.101562 32.617188 84.957031 C 32.664062 84.753906 32.796875 84.574219 32.976562 84.472656 C 32.886719 84.359375 32.800781 84.214844 32.757812 84.082031 C 32.714844 83.945312 32.710938 83.792969 32.785156 83.667969 C 32.878906 83.515625 33.082031 83.4375 33.257812 83.394531 L 33.265625 83.394531 C 33.179688 83.332031 33.183594 83.335938 33.121094 83.246094 C 33.042969 83.140625 33.011719 83.007812 32.992188 82.878906 C 32.972656 82.746094 32.960938 82.613281 32.925781 82.488281 C 32.929688 82.398438 32.878906 82.289062 32.804688 82.242188 C 32.753906 82.210938 32.691406 82.1875 32.667969 82.132812 C 32.652344 82.097656 32.65625 82.058594 32.679688 82.027344 C 32.699219 81.992188 32.734375 81.964844 32.765625 81.945312 C 32.757812 81.582031 32.609375 81.242188 32.515625 80.894531 C 32.402344 80.464844 32.367188 80.015625 32.414062 79.574219 C 32.6875 79.46875 33.207031 79.496094 33.550781 79.585938 C 33.851562 79.667969 34.136719 79.800781 34.445312 79.84375 C 34.632812 79.871094 34.84375 79.855469 34.996094 79.742188 C 35.070312 79.90625 35.257812 80.054688 35.429688 80.085938 C 35.558594 80.109375 35.6875 80.089844 35.8125 80.101562 C 36 80.121094 36.179688 80.21875 36.277344 80.375 C 36.292969 80.257812 36.355469 80.105469 36.429688 80.015625 C 36.507812 79.921875 36.613281 79.855469 36.730469 79.839844 C 36.863281 79.820312 36.996094 79.859375 37.109375 79.925781 C 37.222656 79.988281 37.238281 80.007812 37.335938 80.09375 C 37.464844 79.917969 37.699219 79.753906 37.914062 79.710938 C 38.023438 79.6875 38.140625 79.683594 38.25 79.652344 C 38.4375 79.597656 38.628906 79.453125 38.707031 79.273438 C 38.855469 79.363281 39.042969 79.339844 39.210938 79.390625 C 39.304688 79.417969 39.390625 79.46875 39.488281 79.488281 C 39.609375 79.515625 39.738281 79.492188 39.863281 79.519531 C 40.121094 79.578125 40.273438 79.84375 40.523438 79.925781 C 40.679688 79.816406 40.851562 79.730469 41.039062 79.683594 C 41.089844 79.667969 41.140625 79.65625 41.195312 79.664062 C 41.273438 79.679688 41.34375 79.734375 41.394531 79.792969 C 41.53125 79.945312 41.613281 80.097656 41.636719 80.300781 C 41.761719 80.242188 41.902344 80.226562 42.039062 80.210938 C 42.175781 80.195312 42.316406 80.183594 42.441406 80.125 C 42.570312 80.070312 42.683594 79.957031 42.714844 79.820312 C 42.851562 79.949219 43.066406 79.992188 43.242188 79.925781 C 43.355469 79.882812 43.449219 79.804688 43.5625 79.757812 C 43.777344 79.664062 44.015625 79.703125 44.246094 79.742188 C 44.375 79.527344 44.550781 79.339844 44.753906 79.191406 C 44.8125 79.152344 44.871094 79.113281 44.941406 79.101562 C 45.023438 79.089844 45.105469 79.117188 45.175781 79.152344 C 45.4375 79.28125 45.640625 79.527344 45.714844 79.808594 L 45.714844 79.765625 C 45.910156 79.679688 46.136719 79.664062 46.339844 79.726562 C 46.492188 79.773438 46.628906 79.859375 46.777344 79.90625 C 46.929688 79.953125 47.109375 79.953125 47.226562 79.84375 C 47.28125 80 47.421875 80.136719 47.582031 80.1875 C 47.808594 80.257812 48.070312 80.175781 48.28125 80.285156 C 48.359375 80.097656 48.476562 79.914062 48.621094 79.769531 C 48.671875 79.722656 48.726562 79.675781 48.792969 79.65625 C 48.875 79.636719 48.960938 79.664062 49.035156 79.695312 C 49.230469 79.773438 49.308594 79.800781 49.472656 79.925781 C 49.605469 79.792969 49.746094 79.652344 49.925781 79.59375 C 50.085938 79.542969 50.261719 79.558594 50.417969 79.503906 C 50.53125 79.46875 50.632812 79.402344 50.746094 79.375 C 50.824219 79.359375 50.902344 79.363281 50.980469 79.355469 C 51.058594 79.347656 51.140625 79.328125 51.199219 79.277344 C 51.292969 79.4375 51.4375 79.601562 51.609375 79.664062 C 51.820312 79.746094 52.078125 79.652344 52.265625 79.773438 C 52.339844 79.820312 52.394531 79.894531 52.453125 79.957031 C 52.515625 80.019531 52.59375 80.078125 52.679688 80.074219 C 52.828125 79.96875 52.996094 79.867188 53.164062 79.800781 C 53.207031 79.785156 53.253906 79.769531 53.304688 79.773438 C 53.367188 79.785156 53.417969 79.832031 53.457031 79.878906 C 53.574219 80.015625 53.652344 80.179688 53.691406 80.355469 C 53.785156 80.214844 53.96875 80.144531 54.132812 80.117188 C 54.300781 80.09375 54.46875 80.089844 54.625 80.027344 C 54.757812 79.972656 54.875 79.875 54.949219 79.753906 C 55.109375 79.878906 55.351562 79.882812 55.554688 79.839844 C 55.753906 79.796875 55.941406 79.703125 56.132812 79.640625 C 56.558594 79.496094 57.101562 79.472656 57.535156 79.574219 C 57.582031 80.015625 57.546875 80.464844 57.433594 80.894531 C 57.339844 81.242188 57.191406 81.582031 57.179688 81.945312 C 57.214844 81.960938 57.25 81.992188 57.269531 82.023438 C 57.289062 82.058594 57.296875 82.101562 57.28125 82.132812 C 57.257812 82.1875 57.191406 82.210938 57.140625 82.242188 C 57.066406 82.289062 57.019531 82.398438 57.023438 82.488281 C 56.984375 82.613281 56.976562 82.746094 56.957031 82.878906 C 56.9375 83.007812 56.902344 83.140625 56.828125 83.246094 C 56.765625 83.335938 56.769531 83.332031 56.679688 83.394531 L 56.6875 83.394531 C 56.863281 83.4375 57.070312 83.515625 57.164062 83.667969 C 57.234375 83.792969 57.234375 83.945312 57.191406 84.082031 C 57.148438 84.214844 57.058594 84.359375 56.972656 84.472656 C 57.152344 84.574219 57.285156 84.753906 57.328125 84.957031 C 57.363281 85.101562 57.355469 85.253906 57.398438 85.398438 C 57.453125 85.597656 57.636719 85.71875 57.808594 85.847656 C 57.699219 86.03125 57.652344 86.242188 57.621094 86.453125 C 57.585938 86.660156 57.566406 86.875 57.503906 87.078125 C 57.4375 87.28125 57.3125 87.476562 57.132812 87.589844 C 57.339844 87.726562 57.449219 87.992188 57.40625 88.234375 C 57.363281 88.480469 57.167969 88.6875 56.925781 88.746094 C 56.914062 88.730469 56.84375 88.746094 56.832031 88.765625 C 56.820312 88.785156 56.820312 88.808594 56.824219 88.828125 C 56.84375 89.046875 56.863281 89.265625 56.917969 89.476562 C 56.9375 89.550781 56.960938 89.628906 57.011719 89.6875 C 57.070312 89.75 57.152344 89.785156 57.234375 89.820312 C 57.117188 89.949219 57.082031 90.148438 57.132812 90.3125 C 57.175781 90.460938 57.28125 90.578125 57.328125 90.722656 C 57.371094 90.851562 57.375 91.011719 57.359375 91.148438 C 57.332031 91.226562 57.363281 91.320312 57.414062 91.386719 C 57.46875 91.453125 57.539062 91.5 57.605469 91.554688 C 57.707031 91.632812 57.796875 91.722656 57.871094 91.824219 C 57.921875 91.886719 57.964844 91.953125 57.976562 92.03125 C 57.992188 92.128906 57.957031 92.234375 57.902344 92.320312 Z M 57.902344 92.320312 " fill-opacity="1" fill-rule="nonzero"/></g></g><g clip-path="url(#849fe65e02)"><g clip-path="url(#1b911fbbd1)"><path fill="#ffffff" d="M 31.714844 78.839844 L 58.222656 78.839844 L 58.222656 105.347656 L 31.714844 105.347656 Z M 31.714844 78.839844 " fill-opacity="1" fill-rule="nonzero"/></g></g><g clip-path="url(#a0470cb915)"><g clip-path="url(#961736b012)"><g clip-path="url(#670ca0f24a)"><path fill="#ffffff" d="M 56.871094 52.742188 L 57.65625 52.742188 L 57.65625 74.183594 L 56.871094 74.183594 Z M 56.871094 52.742188 " fill-opacity="1" fill-rule="nonzero"/></g></g></g><g clip-path="url(#a115df33fe)"><g clip-path="url(#886fd3d2f2)"><g clip-path="url(#098a31abdb)"><path fill="#ffffff" d="M 31.40625 52.742188 L 32.191406 52.742188 L 32.191406 74.183594 L 31.40625 74.183594 Z M 31.40625 52.742188 " fill-opacity="1" fill-rule="nonzero"/></g></g></g><g clip-path="url(#c2617a2a44)"><g clip-path="url(#1c4ba55736)"><g clip-path="url(#bf43513525)"><path fill="#ffffff" d="M 33.8125 50.339844 L 55.25 50.339844 L 55.25 51.121094 L 33.8125 51.121094 Z M 33.8125 50.339844 " fill-opacity="1" fill-rule="nonzero"/></g></g></g><g clip-path="url(#96dead765f)"><g clip-path="url(#7f5017435c)"><g clip-path="url(#7b7ecdcc9b)"><path fill="#ffffff" d="M 33.8125 75.804688 L 55.25 75.804688 L 55.25 76.589844 L 33.8125 76.589844 Z M 33.8125 75.804688 " fill-opacity="1" fill-rule="nonzero"/></g></g></g><g clip-path="url(#0e2d88086f)"><g clip-path="url(#46a59bf9ec)"><g clip-path="url(#92a527ff52)"><path fill="#ffffff" d="M 56.871094 51.121094 L 56.871094 52.742188 L 57.65625 52.742188 L 57.65625 50.339844 L 55.25 50.339844 L 55.25 51.121094 Z M 56.871094 51.121094 " fill-opacity="1" fill-rule="nonzero"/></g></g></g><g clip-path="url(#77829aaffc)"><g clip-path="url(#1fb77171e5)"><g clip-path="url(#d18295ef2a)"><path fill="#ffffff" d="M 32.191406 51.121094 L 33.8125 51.121094 L 33.8125 50.339844 L 31.40625 50.339844 L 31.40625 52.742188 L 32.191406 52.742188 Z M 32.191406 51.121094 " fill-opacity="1" fill-rule="nonzero"/></g></g></g><g clip-path="url(#1851f4a861)"><g clip-path="url(#ad864c84e7)"><g clip-path="url(#8444deaebd)"><path fill="#ffffff" d="M 56.871094 75.804688 L 55.25 75.804688 L 55.25 76.589844 L 57.65625 76.589844 L 57.65625 74.183594 L 56.871094 74.183594 Z M 56.871094 75.804688 " fill-opacity="1" fill-rule="nonzero"/></g></g></g><g clip-path="url(#a46d7403f0)"><g clip-path="url(#c785231c08)"><g clip-path="url(#0fbaa9021d)"><path fill="#ffffff" d="M 32.191406 75.804688 L 32.191406 74.183594 L 31.40625 74.183594 L 31.40625 76.589844 L 33.8125 76.589844 L 33.8125 75.804688 Z M 32.191406 75.804688 " fill-opacity="1" fill-rule="nonzero"/></g></g></g><g clip-path="url(#ffe11665d5)"><g clip-path="url(#d561fe02f1)"><g clip-path="url(#578c9337e3)"><path stroke-linecap="butt" transform="matrix(0.75, 0, 0, 0.75, 31.405704, 50.33865)" fill="none" stroke-linejoin="miter" d="M 0.000728485 5.001592 L 0.000728485 30.001595 C 0.000728485 31.324512 0.52677 32.600554 1.46427 33.538054 C 2.40177 34.475554 3.672604 35.001596 5.000729 35.001596 L 30.000732 35.001596 C 32.761149 35.001596 35.000733 32.762012 35.000733 30.001595 L 35.000733 5.001592 C 35.000733 3.673467 34.474691 2.402633 33.537191 1.465133 C 32.599691 0.527633 31.328857 0.00159136 30.000732 0.00159136 L 5.000729 0.00159136 C 2.240312 0.00159136 0.000728485 2.235967 0.000728485 5.001592 Z M 0.000728485 5.001592 " stroke="#ffffff" stroke-width="4" stroke-opacity="1" stroke-miterlimit="4"/></g></g></g><g fill="#ffffff" fill-opacity="1"><g transform="translate(37.225066, 68.339648)"><g><path d="M 14.53125 -10.875 L 12.421875 0 L 9.5625 0 L 7.3125 -7.625 L 5.046875 0 L 2.1875 0 L 0.078125 -10.875 L 2.71875 -10.875 L 4 -3.375 L 6.125 -10.875 L 8.484375 -10.875 L 10.609375 -3.375 L 11.890625 -10.875 Z M 14.53125 -10.875 "/></g></g></g><g clip-path="url(#1f3383a0e8)"><g clip-path="url(#e4cd16d8d0)"><g clip-path="url(#12431d0ae1)"><path fill="#ffffff" d="M 85.941406 52.742188 L 86.726562 52.742188 L 86.726562 74.183594 L 85.941406 74.183594 Z M 85.941406 52.742188 " fill-opacity="1" fill-rule="nonzero"/></g></g></g><g clip-path="url(#a8d83a5e8a)"><g clip-path="url(#0af796a502)"><g clip-path="url(#7f20e51242)"><path fill="#ffffff" d="M 60.476562 52.742188 L 61.261719 52.742188 L 61.261719 74.183594 L 60.476562 74.183594 Z M 60.476562 52.742188 " fill-opacity="1" fill-rule="nonzero"/></g></g></g><g clip-path="url(#4f62172248)"><g clip-path="url(#578dde6810)"><g clip-path="url(#9549c7c79d)"><path fill="#ffffff" d="M 62.882812 50.339844 L 84.320312 50.339844 L 84.320312 51.121094 L 62.882812 51.121094 Z M 62.882812 50.339844 " fill-opacity="1" fill-rule="nonzero"/></g></g></g><g clip-path="url(#a7af561167)"><g clip-path="url(#704b089ecb)"><g clip-path="url(#99098807d1)"><path fill="#ffffff" d="M 62.882812 75.804688 L 84.320312 75.804688 L 84.320312 76.589844 L 62.882812 76.589844 Z M 62.882812 75.804688 " fill-opacity="1" fill-rule="nonzero"/></g></g></g><g clip-path="url(#a092528200)"><g clip-path="url(#28065b6b4c)"><g clip-path="url(#5560d8f924)"><path fill="#ffffff" d="M 85.941406 51.121094 L 85.941406 52.742188 L 86.726562 52.742188 L 86.726562 50.339844 L 84.320312 50.339844 L 84.320312 51.121094 Z M 85.941406 51.121094 " fill-opacity="1" fill-rule="nonzero"/></g></g></g><g clip-path="url(#27d2da8ca0)"><g clip-path="url(#869357ac82)"><g clip-path="url(#9a69f68f5d)"><path fill="#ffffff" d="M 61.261719 51.121094 L 62.882812 51.121094 L 62.882812 50.339844 L 60.476562 50.339844 L 60.476562 52.742188 L 61.261719 52.742188 Z M 61.261719 51.121094 " fill-opacity="1" fill-rule="nonzero"/></g></g></g><g clip-path="url(#dbc0898b92)"><g clip-path="url(#55a494d9ba)"><g clip-path="url(#f157eebbe2)"><path fill="#ffffff" d="M 85.941406 75.804688 L 84.320312 75.804688 L 84.320312 76.589844 L 86.726562 76.589844 L 86.726562 74.183594 L 85.941406 74.183594 Z M 85.941406 75.804688 " fill-opacity="1" fill-rule="nonzero"/></g></g></g><g clip-path="url(#15bc28e8a7)"><g clip-path="url(#441a490f32)"><g clip-path="url(#e106a6ec6e)"><path fill="#ffffff" d="M 61.261719 75.804688 L 61.261719 74.183594 L 60.476562 74.183594 L 60.476562 76.589844 L 62.882812 76.589844 L 62.882812 75.804688 Z M 61.261719 75.804688 " fill-opacity="1" fill-rule="nonzero"/></g></g></g><g clip-path="url(#03822b322f)"><g clip-path="url(#3c54ae426d)"><g clip-path="url(#a9f8bf5524)"><path stroke-linecap="butt" transform="matrix(0.75, 0, 0, 0.75, 60.476395, 50.33865)" fill="none" stroke-linejoin="miter" d="M 0.00022296 4.001592 L 0.00022296 31.001595 C 0.00022296 33.209929 1.79189 35.001596 4.000223 35.001596 L 31.000227 35.001596 C 33.20856 35.001596 35.000227 33.209929 35.000227 31.001595 L 35.000227 4.001592 C 35.000227 1.793258 33.20856 0.00159136 31.000227 0.00159136 L 4.000223 0.00159136 C 1.79189 0.00159136 0.00022296 1.793258 0.00022296 4.001592 Z M 0.00022296 4.001592 " stroke="#ffffff" stroke-width="4" stroke-opacity="1" stroke-miterlimit="4"/></g></g></g><g fill="#ffffff" fill-opacity="1"><g transform="translate(67.438327, 68.339648)"><g><path d="M 9.359375 -5.453125 C 9.359375 -6.015625 9.207031 -6.539062 8.90625 -7.03125 C 8.613281 -7.519531 8.222656 -7.910156 7.734375 -8.203125 C 7.253906 -8.503906 6.726562 -8.65625 6.15625 -8.65625 C 5.601562 -8.65625 5.082031 -8.503906 4.59375 -8.203125 C 4.101562 -7.910156 3.707031 -7.519531 3.40625 -7.03125 C 3.101562 -6.539062 2.953125 -6.015625 2.953125 -5.453125 C 2.953125 -4.898438 3.101562 -4.378906 3.40625 -3.890625 C 3.707031 -3.398438 4.101562 -3 4.59375 -2.6875 C 5.082031 -2.382812 5.601562 -2.234375 6.15625 -2.234375 C 6.726562 -2.234375 7.253906 -2.382812 7.734375 -2.6875 C 8.222656 -3 8.613281 -3.398438 8.90625 -3.890625 C 9.207031 -4.378906 9.359375 -4.898438 9.359375 -5.453125 Z M 11.765625 -5.4375 C 11.765625 -4.6875 11.613281 -3.972656 11.3125 -3.296875 C 11.007812 -2.617188 10.597656 -2.019531 10.078125 -1.5 C 9.566406 -0.988281 8.972656 -0.582031 8.296875 -0.28125 C 7.628906 0.0078125 6.914062 0.15625 6.15625 0.15625 C 5.414062 0.15625 4.707031 0.0078125 4.03125 -0.28125 C 3.351562 -0.582031 2.753906 -0.988281 2.234375 -1.5 C 1.710938 -2.019531 1.300781 -2.617188 1 -3.296875 C 0.707031 -3.972656 0.5625 -4.6875 0.5625 -5.4375 C 0.5625 -6.195312 0.707031 -6.910156 1 -7.578125 C 1.300781 -8.253906 1.710938 -8.847656 2.234375 -9.359375 C 2.753906 -9.878906 3.351562 -10.289062 4.03125 -10.59375 C 4.707031 -10.894531 5.414062 -11.046875 6.15625 -11.046875 C 6.914062 -11.046875 7.628906 -10.894531 8.296875 -10.59375 C 8.972656 -10.289062 9.566406 -9.878906 10.078125 -9.359375 C 10.597656 -8.847656 11.007812 -8.253906 11.3125 -7.578125 C 11.613281 -6.910156 11.765625 -6.195312 11.765625 -5.4375 Z M 11.765625 -5.4375 "/></g></g></g><g clip-path="url(#71bad8a3a6)"><g clip-path="url(#04d4776db6)"><g clip-path="url(#48d64ab562)"><path fill="#ffffff" d="M 85.941406 81.503906 L 86.726562 81.503906 L 86.726562 102.945312 L 85.941406 102.945312 Z M 85.941406 81.503906 " fill-opacity="1" fill-rule="nonzero"/></g></g></g><g clip-path="url(#a8c3d43edf)"><g clip-path="url(#aa22896741)"><g clip-path="url(#a044938f43)"><path fill="#ffffff" d="M 60.476562 81.503906 L 61.261719 81.503906 L 61.261719 102.945312 L 60.476562 102.945312 Z M 60.476562 81.503906 " fill-opacity="1" fill-rule="nonzero"/></g></g></g><g clip-path="url(#6bead51567)"><g clip-path="url(#12ec2d03a2)"><g clip-path="url(#4cad8f95db)"><path fill="#ffffff" d="M 62.882812 104.566406 L 84.320312 104.566406 L 84.320312 105.347656 L 62.882812 105.347656 Z M 62.882812 104.566406 " fill-opacity="1" fill-rule="nonzero"/></g></g></g><g clip-path="url(#a700bb9d56)"><g clip-path="url(#6883558df0)"><g clip-path="url(#ec523dc68f)"><path fill="#ffffff" d="M 85.941406 79.882812 L 85.941406 81.503906 L 86.726562 81.503906 L 86.726562 79.097656 L 84.320312 79.097656 L 84.320312 79.882812 Z M 85.941406 79.882812 " fill-opacity="1" fill-rule="nonzero"/></g></g></g><g clip-path="url(#5be36063f1)"><g clip-path="url(#da7a37f82f)"><g clip-path="url(#291275be62)"><path fill="#ffffff" d="M 61.261719 79.882812 L 62.882812 79.882812 L 62.882812 79.097656 L 60.476562 79.097656 L 60.476562 81.503906 L 61.261719 81.503906 Z M 61.261719 79.882812 " fill-opacity="1" fill-rule="nonzero"/></g></g></g><g clip-path="url(#fe9003fb4b)"><g clip-path="url(#4e1686d5ff)"><g clip-path="url(#35ce694437)"><path fill="#ffffff" d="M 85.941406 104.566406 L 84.320312 104.566406 L 84.320312 105.347656 L 86.726562 105.347656 L 86.726562 102.945312 L 85.941406 102.945312 Z M 85.941406 104.566406 " fill-opacity="1" fill-rule="nonzero"/></g></g></g><g clip-path="url(#5dac44b067)"><g clip-path="url(#facda36eb4)"><g clip-path="url(#aaaba691cd)"><path fill="#ffffff" d="M 61.261719 104.566406 L 61.261719 102.945312 L 60.476562 102.945312 L 60.476562 105.347656 L 62.882812 105.347656 L 62.882812 104.566406 Z M 61.261719 104.566406 " fill-opacity="1" fill-rule="nonzero"/></g></g></g><g clip-path="url(#ce99ecd85a)"><g clip-path="url(#cee1885fdc)"><g clip-path="url(#6f4b2e4bd2)"><path stroke-linecap="butt" transform="matrix(0.75, 0, 0, 0.75, 60.476395, 79.098953)" fill="none" stroke-linejoin="miter" d="M 0.00022296 4.998272 L 0.00022296 29.998275 C 0.00022296 31.3264 0.526265 32.597234 1.463765 33.534734 C 2.401265 34.472234 3.672098 34.998276 5.000224 34.998276 L 30.000227 34.998276 C 32.760644 34.998276 35.000227 32.763901 35.000227 29.998275 L 35.000227 4.998272 C 35.000227 3.675355 34.474186 2.404522 33.536685 1.461813 C 32.599185 0.524313 31.328352 -0.00172837 30.000227 -0.00172837 L 5.000224 -0.00172837 C 2.239807 -0.00172837 0.00022296 2.237855 0.00022296 4.998272 Z M 0.00022296 4.998272 " stroke="#ffffff" stroke-width="4" stroke-opacity="1" stroke-miterlimit="4"/></g></g></g><g fill="#ffffff" fill-opacity="1"><g transform="translate(69.190281, 97.099962)"><g><path d="M 3.359375 -3.890625 L 3.359375 0 L 0.953125 0 L 0.953125 -10.875 L 5.046875 -10.875 C 5.628906 -10.875 6.171875 -10.726562 6.671875 -10.4375 C 7.179688 -10.144531 7.59375 -9.738281 7.90625 -9.21875 C 8.21875 -8.695312 8.375 -8.085938 8.375 -7.390625 C 8.375 -6.785156 8.257812 -6.25 8.03125 -5.78125 C 7.8125 -5.3125 7.515625 -4.925781 7.140625 -4.625 C 6.765625 -4.320312 6.347656 -4.113281 5.890625 -4 L 9.015625 0 L 5.96875 0 L 3.375 -3.890625 Z M 4.640625 -8.984375 L 3.359375 -8.984375 L 3.359375 -5.78125 L 4.640625 -5.78125 C 4.992188 -5.78125 5.320312 -5.914062 5.625 -6.1875 C 5.925781 -6.46875 6.078125 -6.867188 6.078125 -7.390625 C 6.078125 -7.890625 5.925781 -8.28125 5.625 -8.5625 C 5.320312 -8.84375 4.992188 -8.984375 4.640625 -8.984375 Z M 4.640625 -8.984375 "/></g></g></g><g clip-path="url(#7596a6abef)"><g clip-path="url(#1cc30d6bc5)"><g clip-path="url(#b0a16995bb)"><path fill="#ffffff" d="M 114.703125 81.503906 L 115.488281 81.503906 L 115.488281 102.945312 L 114.703125 102.945312 Z M 114.703125 81.503906 " fill-opacity="1" fill-rule="nonzero"/></g></g></g><g clip-path="url(#5e23ebfde2)"><g clip-path="url(#81da9f0c27)"><g clip-path="url(#e764cb1d4a)"><path fill="#ffffff" d="M 89.238281 81.503906 L 90.019531 81.503906 L 90.019531 102.945312 L 89.238281 102.945312 Z M 89.238281 81.503906 " fill-opacity="1" fill-rule="nonzero"/></g></g></g><g clip-path="url(#dd29d815f6)"><g clip-path="url(#75c458f9d0)"><g clip-path="url(#bd5b9dce5b)"><path fill="#ffffff" d="M 91.640625 104.566406 L 113.082031 104.566406 L 113.082031 105.347656 L 91.640625 105.347656 Z M 91.640625 104.566406 " fill-opacity="1" fill-rule="nonzero"/></g></g></g><g clip-path="url(#94fc47c0a9)"><g clip-path="url(#9cb7a95f7e)"><g clip-path="url(#67cc51181a)"><path fill="#ffffff" d="M 114.703125 79.882812 L 114.703125 81.503906 L 115.488281 81.503906 L 115.488281 79.097656 L 113.082031 79.097656 L 113.082031 79.882812 Z M 114.703125 79.882812 " fill-opacity="1" fill-rule="nonzero"/></g></g></g><g clip-path="url(#e417b89cfe)"><g clip-path="url(#ad5f4b5e6e)"><g clip-path="url(#fe6ca95d0c)"><path fill="#ffffff" d="M 90.019531 79.882812 L 91.640625 79.882812 L 91.640625 79.097656 L 89.238281 79.097656 L 89.238281 81.503906 L 90.019531 81.503906 Z M 90.019531 79.882812 " fill-opacity="1" fill-rule="nonzero"/></g></g></g><g clip-path="url(#6706f56175)"><g clip-path="url(#8d74904d75)"><g clip-path="url(#49177b3d95)"><path fill="#ffffff" d="M 114.703125 104.566406 L 113.082031 104.566406 L 113.082031 105.347656 L 115.488281 105.347656 L 115.488281 102.945312 L 114.703125 102.945312 Z M 114.703125 104.566406 " fill-opacity="1" fill-rule="nonzero"/></g></g></g><g clip-path="url(#eb564b762b)"><g clip-path="url(#494b54f086)"><g clip-path="url(#af3bba6d1e)"><path fill="#ffffff" d="M 90.019531 104.566406 L 90.019531 102.945312 L 89.238281 102.945312 L 89.238281 105.347656 L 91.640625 105.347656 L 91.640625 104.566406 Z M 90.019531 104.566406 " fill-opacity="1" fill-rule="nonzero"/></g></g></g><g clip-path="url(#a37a468e64)"><g clip-path="url(#d7191eff6f)"><g clip-path="url(#7c55cb4179)"><path stroke-linecap="butt" transform="matrix(0.75, 0, 0, 0.75, 89.236702, 79.098953)" fill="none" stroke-linejoin="miter" d="M 0.00210516 4.998272 L 0.00210516 29.998275 C 0.00210516 31.3264 0.528147 32.597234 1.465647 33.534734 C 2.403147 34.472234 3.673981 34.998276 5.002106 34.998276 L 30.002109 34.998276 C 32.762526 34.998276 35.002109 32.763901 35.002109 29.998275 L 35.002109 4.998272 C 35.002109 3.675355 34.470859 2.404522 33.533359 1.461813 C 32.595859 0.524313 31.325026 -0.00172837 30.002109 -0.00172837 L 5.002106 -0.00172837 C 2.23648 -0.00172837 0.00210516 2.237855 0.00210516 4.998272 Z M 0.00210516 4.998272 " stroke="#ffffff" stroke-width="4" stroke-opacity="1" stroke-miterlimit="4"/></g></g></g><g fill="#ffffff" fill-opacity="1"><g transform="translate(97.282628, 97.099962)"><g><path d="M 3.328125 -2.203125 L 4.046875 -2.203125 C 4.660156 -2.203125 5.203125 -2.347656 5.671875 -2.640625 C 6.140625 -2.929688 6.503906 -3.320312 6.765625 -3.8125 C 7.023438 -4.300781 7.15625 -4.84375 7.15625 -5.4375 C 7.15625 -6.050781 7.023438 -6.597656 6.765625 -7.078125 C 6.503906 -7.566406 6.140625 -7.953125 5.671875 -8.234375 C 5.203125 -8.515625 4.660156 -8.65625 4.046875 -8.65625 L 3.328125 -8.65625 Z M 0.953125 -10.875 L 4.1875 -10.875 C 4.957031 -10.875 5.671875 -10.734375 6.328125 -10.453125 C 6.984375 -10.179688 7.554688 -9.800781 8.046875 -9.3125 C 8.535156 -8.820312 8.914062 -8.242188 9.1875 -7.578125 C 9.457031 -6.921875 9.59375 -6.207031 9.59375 -5.4375 C 9.59375 -4.664062 9.457031 -3.945312 9.1875 -3.28125 C 8.914062 -2.625 8.535156 -2.050781 8.046875 -1.5625 C 7.566406 -1.070312 6.992188 -0.6875 6.328125 -0.40625 C 5.671875 -0.132812 4.957031 0 4.1875 0 L 0.953125 0 Z M 0.953125 -10.875 "/></g></g></g><g transform="matrix(1, 0, 0, 1, 89, 50)"><g clip-path="url(#03e0ca86fc)"><g clip-path="url(#1de8a55f80)"><g clip-path="url(#1c6628fd56)"><path fill="#ffffff" d="M 26.164062 13.683594 C 26.023438 13.914062 25.785156 14.050781 25.550781 14.183594 C 25.648438 14.324219 25.644531 14.519531 25.601562 14.6875 C 25.554688 14.855469 25.476562 15.015625 25.429688 15.183594 C 25.386719 15.351562 25.398438 15.574219 25.496094 15.71875 C 25.359375 15.726562 25.246094 15.832031 25.191406 15.957031 C 25.136719 16.082031 25.128906 16.21875 25.117188 16.355469 C 25.105469 16.488281 25.089844 16.628906 25.019531 16.742188 L 25.019531 16.746094 C 25.214844 16.820312 25.414062 16.902344 25.554688 17.0625 C 25.59375 17.105469 25.628906 17.160156 25.648438 17.214844 C 25.695312 17.347656 25.675781 17.496094 25.621094 17.621094 C 25.570312 17.75 25.484375 17.863281 25.402344 17.972656 C 25.507812 18.082031 25.6875 18.203125 25.738281 18.347656 C 25.769531 18.441406 25.769531 18.542969 25.785156 18.640625 C 25.832031 18.984375 26.015625 19.308594 26.003906 19.652344 L 26.003906 19.65625 C 26.003906 19.691406 25.976562 19.71875 25.945312 19.738281 C 25.917969 19.757812 25.882812 19.765625 25.851562 19.78125 C 25.742188 19.835938 25.6875 19.960938 25.664062 20.078125 C 25.640625 20.199219 25.644531 20.324219 25.621094 20.441406 C 25.566406 20.683594 25.382812 20.878906 25.222656 21.070312 C 25.308594 21.179688 25.398438 21.289062 25.449219 21.421875 C 25.496094 21.554688 25.503906 21.710938 25.429688 21.828125 C 25.335938 21.972656 25.117188 22.042969 24.953125 22.085938 C 25.074219 22.207031 25.203125 22.335938 25.230469 22.507812 C 25.246094 22.625 25.210938 22.742188 25.222656 22.859375 C 25.238281 22.960938 25.289062 23.054688 25.355469 23.132812 C 25.421875 23.210938 25.5 23.277344 25.582031 23.339844 C 25.4375 23.558594 25.453125 23.863281 25.519531 24.117188 C 25.585938 24.367188 25.707031 24.597656 25.773438 24.851562 C 25.855469 25.167969 25.851562 25.511719 25.757812 25.828125 C 25.328125 25.933594 24.828125 25.933594 24.410156 25.789062 C 24.21875 25.722656 24.035156 25.632812 23.835938 25.589844 C 23.636719 25.546875 23.398438 25.554688 23.234375 25.675781 C 23.160156 25.554688 23.046875 25.457031 22.914062 25.40625 C 22.761719 25.34375 22.59375 25.339844 22.429688 25.316406 C 22.265625 25.289062 22.085938 25.21875 21.992188 25.082031 C 21.953125 25.253906 21.875 25.414062 21.757812 25.550781 C 21.71875 25.597656 21.667969 25.644531 21.605469 25.65625 C 21.558594 25.660156 21.511719 25.644531 21.46875 25.628906 C 21.300781 25.5625 21.136719 25.460938 20.992188 25.359375 C 20.902344 25.355469 20.824219 25.410156 20.765625 25.472656 C 20.707031 25.535156 20.652344 25.609375 20.582031 25.65625 C 20.390625 25.773438 20.136719 25.683594 19.929688 25.761719 C 19.761719 25.828125 19.617188 25.988281 19.523438 26.144531 C 19.464844 26.09375 19.386719 26.078125 19.308594 26.070312 C 19.230469 26.066406 19.152344 26.066406 19.074219 26.050781 C 18.960938 26.023438 18.863281 25.957031 18.75 25.921875 C 18.59375 25.871094 18.421875 25.886719 18.265625 25.835938 C 18.085938 25.777344 17.945312 25.640625 17.816406 25.507812 C 17.648438 25.628906 17.574219 25.65625 17.382812 25.734375 C 17.304688 25.761719 17.222656 25.789062 17.140625 25.769531 C 17.074219 25.753906 17.019531 25.707031 16.972656 25.660156 C 16.828125 25.515625 16.714844 25.335938 16.632812 25.148438 C 16.425781 25.257812 16.164062 25.175781 15.941406 25.246094 C 15.785156 25.296875 15.644531 25.429688 15.589844 25.585938 C 15.476562 25.476562 15.296875 25.476562 15.148438 25.523438 C 14.996094 25.570312 14.863281 25.65625 14.714844 25.703125 C 14.511719 25.765625 14.285156 25.75 14.09375 25.664062 L 14.09375 25.621094 C 14.019531 25.902344 13.820312 26.144531 13.5625 26.269531 C 13.488281 26.304688 13.40625 26.332031 13.328125 26.320312 C 13.261719 26.308594 13.199219 26.273438 13.144531 26.230469 C 12.941406 26.085938 12.769531 25.902344 12.640625 25.6875 C 12.410156 25.726562 12.175781 25.765625 11.960938 25.671875 C 11.851562 25.625 11.757812 25.546875 11.644531 25.503906 C 11.46875 25.441406 11.261719 25.484375 11.121094 25.609375 C 11.09375 25.476562 10.980469 25.363281 10.855469 25.308594 C 10.730469 25.253906 10.589844 25.238281 10.453125 25.222656 C 10.316406 25.207031 10.179688 25.191406 10.054688 25.132812 C 10.03125 25.335938 9.953125 25.488281 9.816406 25.636719 C 9.765625 25.695312 9.699219 25.75 9.617188 25.761719 C 9.566406 25.769531 9.515625 25.761719 9.464844 25.746094 C 9.28125 25.699219 9.109375 25.613281 8.953125 25.503906 C 8.703125 25.589844 8.558594 25.851562 8.300781 25.90625 C 8.179688 25.933594 8.050781 25.910156 7.929688 25.9375 C 7.832031 25.957031 7.75 26.007812 7.65625 26.035156 C 7.492188 26.085938 7.304688 26.0625 7.15625 26.148438 C 7.078125 25.972656 6.890625 25.832031 6.703125 25.777344 C 6.59375 25.746094 6.480469 25.742188 6.371094 25.71875 C 6.15625 25.675781 5.925781 25.511719 5.796875 25.335938 C 5.703125 25.425781 5.683594 25.441406 5.574219 25.507812 C 5.460938 25.574219 5.328125 25.609375 5.199219 25.59375 C 5.085938 25.574219 4.976562 25.507812 4.902344 25.417969 C 4.828125 25.328125 4.765625 25.175781 4.75 25.058594 C 4.652344 25.214844 4.472656 25.3125 4.289062 25.332031 C 4.164062 25.34375 4.035156 25.324219 3.914062 25.347656 C 3.738281 25.378906 3.554688 25.527344 3.484375 25.6875 C 3.332031 25.574219 3.125 25.558594 2.933594 25.585938 C 2.632812 25.628906 2.347656 25.761719 2.054688 25.839844 C 1.710938 25.933594 1.234375 25.933594 0.964844 25.832031 C 0.871094 25.511719 0.863281 25.171875 0.949219 24.851562 C 1.015625 24.601562 1.136719 24.367188 1.203125 24.117188 C 1.269531 23.867188 1.285156 23.558594 1.140625 23.34375 C 1.21875 23.277344 1.300781 23.210938 1.367188 23.132812 C 1.433594 23.054688 1.484375 22.964844 1.496094 22.863281 C 1.511719 22.742188 1.476562 22.625 1.492188 22.507812 C 1.515625 22.339844 1.648438 22.207031 1.769531 22.085938 C 1.601562 22.046875 1.382812 21.976562 1.292969 21.828125 C 1.21875 21.710938 1.222656 21.554688 1.273438 21.421875 C 1.324219 21.292969 1.414062 21.179688 1.5 21.070312 C 1.339844 20.882812 1.152344 20.683594 1.101562 20.441406 C 1.078125 20.324219 1.082031 20.199219 1.058594 20.082031 C 1.035156 19.960938 0.976562 19.839844 0.871094 19.78125 C 0.839844 19.765625 0.804688 19.757812 0.773438 19.738281 C 0.742188 19.71875 0.71875 19.691406 0.714844 19.65625 C 0.703125 19.308594 0.886719 18.984375 0.9375 18.640625 C 0.949219 18.542969 0.953125 18.441406 0.984375 18.351562 C 1.03125 18.203125 1.210938 18.082031 1.320312 17.972656 C 1.234375 17.863281 1.152344 17.75 1.097656 17.621094 C 1.042969 17.496094 1.023438 17.347656 1.074219 17.214844 C 1.09375 17.160156 1.128906 17.105469 1.167969 17.0625 C 1.304688 16.902344 1.507812 16.820312 1.699219 16.746094 L 1.703125 16.746094 C 1.632812 16.628906 1.617188 16.488281 1.601562 16.355469 C 1.589844 16.21875 1.582031 16.082031 1.527344 15.957031 C 1.472656 15.835938 1.359375 15.726562 1.226562 15.71875 C 1.324219 15.574219 1.335938 15.351562 1.289062 15.183594 C 1.246094 15.015625 1.164062 14.855469 1.121094 14.6875 C 1.074219 14.519531 1.070312 14.324219 1.171875 14.183594 C 0.9375 14.050781 0.699219 13.914062 0.558594 13.6875 C 0.503906 13.597656 0.46875 13.496094 0.488281 13.398438 C 0.5 13.320312 0.542969 13.253906 0.59375 13.195312 C 0.667969 13.09375 0.757812 13.003906 0.855469 12.925781 C 0.921875 12.875 0.992188 12.824219 1.046875 12.757812 C 1.097656 12.695312 1.128906 12.601562 1.101562 12.523438 C 1.085938 12.390625 1.089844 12.230469 1.132812 12.105469 C 1.179688 11.960938 1.285156 11.84375 1.328125 11.699219 C 1.375 11.53125 1.339844 11.339844 1.226562 11.210938 C 1.304688 11.175781 1.386719 11.140625 1.441406 11.074219 C 1.492188 11.019531 1.519531 10.941406 1.539062 10.867188 C 1.59375 10.660156 1.613281 10.441406 1.632812 10.226562 C 1.632812 10.207031 1.636719 10.183594 1.625 10.164062 C 1.613281 10.148438 1.542969 10.128906 1.53125 10.144531 C 1.292969 10.089844 1.097656 9.882812 1.054688 9.640625 C 1.011719 9.398438 1.121094 9.136719 1.324219 9 C 1.148438 8.890625 1.023438 8.695312 0.960938 8.492188 C 0.894531 8.292969 0.875 8.082031 0.84375 7.875 C 0.8125 7.667969 0.765625 7.457031 0.65625 7.277344 C 0.824219 7.148438 1.007812 7.027344 1.0625 6.832031 C 1.105469 6.691406 1.09375 6.539062 1.128906 6.394531 C 1.175781 6.195312 1.308594 6.015625 1.484375 5.914062 C 1.398438 5.804688 1.3125 5.660156 1.265625 5.527344 C 1.222656 5.394531 1.222656 5.238281 1.296875 5.121094 C 1.386719 4.964844 1.589844 4.886719 1.765625 4.847656 L 1.773438 4.847656 C 1.6875 4.785156 1.6875 4.789062 1.628906 4.703125 C 1.550781 4.59375 1.519531 4.464844 1.5 4.335938 C 1.480469 4.207031 1.472656 4.074219 1.433594 3.949219 C 1.4375 3.859375 1.390625 3.753906 1.316406 3.707031 C 1.265625 3.675781 1.203125 3.652344 1.175781 3.601562 C 1.160156 3.566406 1.167969 3.523438 1.1875 3.492188 C 1.207031 3.460938 1.242188 3.429688 1.277344 3.410156 C 1.265625 3.054688 1.121094 2.714844 1.027344 2.371094 C 0.914062 1.945312 0.878906 1.5 0.925781 1.066406 C 1.195312 0.960938 1.714844 0.988281 2.054688 1.078125 C 2.351562 1.15625 2.632812 1.289062 2.9375 1.332031 C 3.125 1.359375 3.332031 1.34375 3.484375 1.230469 C 3.558594 1.390625 3.742188 1.539062 3.914062 1.570312 C 4.039062 1.59375 4.167969 1.574219 4.292969 1.585938 C 4.476562 1.605469 4.65625 1.703125 4.753906 1.859375 C 4.769531 1.742188 4.832031 1.59375 4.90625 1.5 C 4.980469 1.410156 5.085938 1.34375 5.203125 1.328125 C 5.332031 1.308594 5.460938 1.347656 5.574219 1.410156 C 5.6875 1.476562 5.703125 1.492188 5.800781 1.582031 C 5.929688 1.40625 6.160156 1.242188 6.371094 1.199219 C 6.480469 1.175781 6.597656 1.171875 6.707031 1.140625 C 6.890625 1.089844 7.082031 0.945312 7.15625 0.769531 C 7.304688 0.855469 7.492188 0.832031 7.65625 0.882812 C 7.75 0.910156 7.835938 0.960938 7.929688 0.980469 C 8.050781 1.007812 8.179688 0.984375 8.300781 1.011719 C 8.558594 1.066406 8.707031 1.328125 8.957031 1.414062 C 9.109375 1.304688 9.28125 1.21875 9.464844 1.171875 C 9.515625 1.15625 9.570312 1.148438 9.621094 1.15625 C 9.699219 1.167969 9.765625 1.222656 9.820312 1.28125 C 9.953125 1.429688 10.035156 1.585938 10.058594 1.785156 C 10.179688 1.726562 10.320312 1.710938 10.457031 1.695312 C 10.59375 1.683594 10.730469 1.667969 10.855469 1.609375 C 10.980469 1.554688 11.097656 1.441406 11.125 1.308594 C 11.261719 1.4375 11.472656 1.476562 11.648438 1.414062 C 11.761719 1.371094 11.855469 1.292969 11.964844 1.246094 C 12.179688 1.152344 12.414062 1.191406 12.640625 1.230469 C 12.769531 1.015625 12.945312 0.832031 13.144531 0.6875 C 13.203125 0.648438 13.261719 0.609375 13.328125 0.597656 C 13.410156 0.585938 13.492188 0.613281 13.5625 0.648438 C 13.824219 0.773438 14.023438 1.015625 14.09375 1.296875 L 14.09375 1.253906 C 14.289062 1.167969 14.511719 1.15625 14.714844 1.21875 C 14.863281 1.261719 15 1.347656 15.148438 1.394531 C 15.296875 1.441406 15.476562 1.441406 15.59375 1.332031 C 15.644531 1.488281 15.785156 1.621094 15.941406 1.671875 C 16.167969 1.742188 16.425781 1.664062 16.636719 1.769531 C 16.714844 1.585938 16.832031 1.402344 16.972656 1.257812 C 17.023438 1.210938 17.078125 1.164062 17.144531 1.148438 C 17.222656 1.128906 17.308594 1.15625 17.386719 1.183594 C 17.574219 1.261719 17.652344 1.289062 17.816406 1.414062 C 17.949219 1.28125 18.085938 1.144531 18.265625 1.082031 C 18.421875 1.03125 18.597656 1.046875 18.753906 0.996094 C 18.863281 0.960938 18.964844 0.894531 19.078125 0.867188 C 19.152344 0.851562 19.230469 0.855469 19.308594 0.847656 C 19.386719 0.839844 19.46875 0.824219 19.527344 0.773438 C 19.621094 0.929688 19.761719 1.089844 19.933594 1.15625 C 20.140625 1.234375 20.394531 1.144531 20.582031 1.261719 C 20.65625 1.308594 20.707031 1.382812 20.769531 1.445312 C 20.828125 1.507812 20.90625 1.5625 20.992188 1.558594 C 21.140625 1.457031 21.304688 1.355469 21.472656 1.289062 C 21.515625 1.273438 21.5625 1.257812 21.609375 1.261719 C 21.671875 1.273438 21.722656 1.320312 21.761719 1.367188 C 21.875 1.503906 21.957031 1.664062 21.996094 1.835938 C 22.085938 1.699219 22.269531 1.628906 22.429688 1.605469 C 22.59375 1.578125 22.761719 1.574219 22.917969 1.515625 C 23.050781 1.460938 23.164062 1.363281 23.238281 1.242188 C 23.398438 1.367188 23.636719 1.371094 23.835938 1.328125 C 24.035156 1.285156 24.21875 1.195312 24.410156 1.128906 C 24.832031 0.984375 25.367188 0.960938 25.796875 1.066406 C 25.84375 1.5 25.808594 1.945312 25.695312 2.371094 C 25.605469 2.714844 25.457031 3.054688 25.449219 3.410156 C 25.480469 3.429688 25.515625 3.457031 25.535156 3.492188 C 25.554688 3.523438 25.5625 3.566406 25.546875 3.597656 C 25.523438 3.652344 25.460938 3.671875 25.410156 3.707031 C 25.335938 3.753906 25.289062 3.859375 25.289062 3.949219 C 25.253906 4.074219 25.246094 4.207031 25.226562 4.335938 C 25.207031 4.464844 25.171875 4.59375 25.097656 4.699219 C 25.035156 4.789062 25.039062 4.785156 24.953125 4.847656 L 24.960938 4.847656 C 25.132812 4.886719 25.335938 4.964844 25.429688 5.121094 C 25.5 5.238281 25.5 5.394531 25.457031 5.527344 C 25.414062 5.660156 25.328125 5.800781 25.242188 5.914062 C 25.417969 6.015625 25.550781 6.195312 25.59375 6.394531 C 25.628906 6.535156 25.621094 6.6875 25.660156 6.832031 C 25.71875 7.027344 25.898438 7.148438 26.070312 7.277344 C 25.960938 7.457031 25.914062 7.667969 25.882812 7.875 C 25.851562 8.082031 25.828125 8.292969 25.765625 8.492188 C 25.703125 8.691406 25.578125 8.890625 25.398438 9 C 25.605469 9.136719 25.714844 9.398438 25.671875 9.640625 C 25.628906 9.878906 25.433594 10.089844 25.195312 10.144531 C 25.183594 10.128906 25.113281 10.148438 25.101562 10.164062 C 25.089844 10.183594 25.09375 10.207031 25.09375 10.226562 C 25.113281 10.441406 25.132812 10.660156 25.1875 10.867188 C 25.207031 10.941406 25.230469 11.019531 25.28125 11.074219 C 25.339844 11.140625 25.421875 11.175781 25.5 11.210938 C 25.386719 11.339844 25.347656 11.53125 25.398438 11.699219 C 25.441406 11.839844 25.546875 11.960938 25.59375 12.101562 C 25.636719 12.230469 25.640625 12.390625 25.625 12.523438 C 25.597656 12.601562 25.628906 12.691406 25.679688 12.757812 C 25.730469 12.824219 25.804688 12.871094 25.867188 12.925781 C 25.96875 13.003906 26.054688 13.09375 26.132812 13.195312 C 26.179688 13.253906 26.222656 13.320312 26.238281 13.398438 C 26.253906 13.496094 26.214844 13.597656 26.164062 13.683594 Z M 26.164062 13.683594 " fill-opacity="1" fill-rule="nonzero"/><path fill="#ffffff" d="M 0.238281 0.339844 L 26.480469 0.339844 L 26.480469 26.582031 L 0.238281 26.582031 Z M 0.238281 0.339844 " fill-opacity="1" fill-rule="nonzero"/></g></g><g clip-path="url(#1a3f341e66)"><path fill="#ffffff" d="M 18.664062 2.429688 C 18.589844 2.4375 17.449219 2.515625 16.128906 2.609375 C 12.800781 2.839844 12.402344 2.875 12.292969 2.917969 C 12.234375 2.941406 12.171875 3.011719 12.121094 3.109375 C 12.007812 3.332031 10.292969 7.117188 7.808594 12.621094 C 7.402344 13.527344 7.238281 13.933594 7.238281 14.019531 C 7.238281 14.179688 7.339844 14.316406 7.480469 14.335938 C 7.542969 14.34375 8.578125 14.390625 9.785156 14.4375 C 10.996094 14.488281 12.109375 14.539062 12.261719 14.550781 L 12.53125 14.574219 L 12.003906 15.714844 C 11.714844 16.339844 11.1875 17.484375 10.828125 18.25 C 9.859375 20.332031 8.976562 22.246094 8.644531 22.980469 C 8.480469 23.339844 8.261719 23.816406 8.164062 24.039062 C 8.058594 24.257812 7.976562 24.484375 7.976562 24.535156 C 7.976562 24.683594 8.140625 24.828125 8.308594 24.828125 C 8.476562 24.828125 8.484375 24.820312 9.109375 24.070312 C 9.382812 23.738281 9.867188 23.164062 10.175781 22.796875 C 11.652344 21.046875 16.003906 15.828125 18.757812 12.5 C 19.355469 11.777344 19.417969 11.691406 19.417969 11.574219 C 19.417969 11.425781 19.355469 11.324219 19.226562 11.273438 C 19.179688 11.253906 18.515625 11.191406 17.757812 11.132812 C 15.316406 10.953125 14.503906 10.886719 14.492188 10.882812 C 14.488281 10.878906 14.75 10.445312 15.078125 9.921875 C 15.402344 9.398438 16.054688 8.339844 16.53125 7.574219 C 17.007812 6.808594 17.765625 5.589844 18.214844 4.875 C 18.660156 4.152344 19.132812 3.398438 19.257812 3.199219 C 19.523438 2.769531 19.542969 2.660156 19.390625 2.503906 C 19.296875 2.414062 19.273438 2.40625 19.042969 2.414062 C 18.910156 2.417969 18.738281 2.421875 18.664062 2.429688 Z M 16.847656 5.832031 C 14.910156 8.945312 14.28125 9.953125 13.867188 10.597656 C 13.625 10.976562 13.578125 11.070312 13.578125 11.191406 C 13.578125 11.304688 13.597656 11.34375 13.683594 11.414062 C 13.742188 11.460938 13.796875 11.503906 13.816406 11.503906 C 13.871094 11.503906 17.480469 11.773438 17.949219 11.8125 L 18.441406 11.855469 L 18.070312 12.308594 C 17.265625 13.289062 12.878906 18.5625 11.886719 19.742188 C 11.5 20.203125 10.859375 20.964844 10.460938 21.4375 C 10.066406 21.90625 9.714844 22.324219 9.675781 22.359375 C 9.617188 22.421875 9.617188 22.417969 9.683594 22.285156 C 9.71875 22.207031 10 21.605469 10.304688 20.941406 C 10.605469 20.28125 11.09375 19.234375 11.382812 18.617188 C 11.671875 18 12.074219 17.136719 12.269531 16.703125 C 12.46875 16.269531 12.800781 15.554688 13.003906 15.117188 C 13.210938 14.675781 13.378906 14.285156 13.378906 14.25 C 13.378906 14.136719 13.285156 13.996094 13.1875 13.957031 C 13.101562 13.925781 8.832031 13.71875 8.285156 13.71875 C 8.136719 13.71875 8.074219 13.703125 8.074219 13.671875 C 8.074219 13.648438 8.285156 13.164062 8.542969 12.59375 C 9.320312 10.847656 11.496094 6.046875 12.035156 4.875 C 12.316406 4.261719 12.570312 3.710938 12.597656 3.644531 C 12.65625 3.496094 12.367188 3.53125 15.222656 3.328125 C 16.414062 3.246094 17.648438 3.160156 17.960938 3.136719 C 18.273438 3.113281 18.535156 3.09375 18.539062 3.097656 C 18.546875 3.101562 17.785156 4.332031 16.847656 5.832031 Z M 16.847656 5.832031 " fill-opacity="1" fill-rule="nonzero"/></g></g></g></svg>