<svg xmlns="http://www.w3.org/2000/svg" xmlns:xlink="http://www.w3.org/1999/xlink" width="192" zoomAndPan="magnify" viewBox="0 0 144 143.999998" height="192" preserveAspectRatio="xMidYMid meet" version="1.0"><defs><clipPath id="8bd1e78516"><path d="M 15.757812 42 L 128.257812 42 L 128.257812 102 L 15.757812 102 Z M 15.757812 42 " clip-rule="nonzero"/></clipPath></defs><path fill="#ffffff" d="M 39.699219 71.304688 C 38.472656 67.285156 36.929688 61.523438 33.65625 59.113281 C 32.101562 62.71875 31.535156 68.519531 31.671875 72.632812 C 33.742188 72.84375 38.8125 73.589844 39.699219 71.304688 Z M 34.457031 62.992188 C 34.988281 63.980469 35.511719 64.980469 35.980469 65.992188 L 34.113281 65.214844 C 34.242188 64.480469 34.355469 63.738281 34.457031 62.992188 Z M 33.289062 71.058594 C 33.324219 70.667969 33.367188 70.277344 33.414062 69.882812 L 35.9375 70.941406 C 35.058594 70.988281 34.171875 71.019531 33.289062 71.058594 Z M 33.558594 68.808594 C 33.679688 67.957031 33.8125 67.113281 33.949219 66.28125 L 36.601562 67.394531 C 37.03125 68.414062 37.390625 69.460938 37.675781 70.53125 Z M 33.558594 68.808594 " fill-opacity="1" fill-rule="nonzero"/><g clip-path="url(#8bd1e78516)"><path fill="#ffffff" d="M 128.1875 93.078125 C 127.699219 91.128906 127.332031 89.101562 126.8125 87.148438 C 126.371094 85.773438 126.007812 84.074219 124.695312 83.277344 C 120.722656 81.191406 114.613281 79.046875 110.125 80.066406 C 106.300781 74.523438 108.507812 65.300781 114.855469 62.628906 C 116.726562 61.742188 118.65625 61.023438 120.652344 60.476562 C 121.820312 60.222656 123.253906 60.101562 123.921875 58.964844 C 123.921875 58.964844 123.921875 58.949219 123.933594 58.949219 C 124.082031 58.710938 124.21875 58.464844 124.339844 58.210938 C 125.304688 55.765625 126.140625 53.273438 126.84375 50.742188 C 127.324219 48.945312 126.707031 46.859375 124.824219 46.203125 C 115.265625 40.261719 102.566406 41.414062 95.417969 50.691406 C 95.121094 50.417969 94.8125 50.160156 94.484375 49.925781 C 94.152344 49.675781 93.808594 49.449219 93.453125 49.238281 C 93.378906 49.191406 93.304688 49.15625 93.238281 49.109375 C 84.199219 43.894531 73.941406 42.394531 63.738281 44.007812 C 54.304688 42.820312 56.914062 52.175781 56.78125 58.230469 C 54.0625 51.136719 50.949219 43.851562 42.554688 42.65625 C 36.425781 44.941406 22.871094 40.160156 22.765625 48.960938 C 19.515625 63.335938 17.78125 77.957031 15.757812 92.53125 C 16.355469 98.859375 31.90625 101.554688 37.132812 100.660156 C 37.132812 100.660156 37.152344 100.660156 37.15625 100.660156 C 37.363281 100.582031 37.550781 100.460938 37.710938 100.308594 C 37.765625 100.257812 37.820312 100.207031 37.867188 100.148438 C 37.875 100.144531 37.878906 100.140625 37.882812 100.132812 C 37.882812 100.132812 37.882812 100.117188 37.898438 100.117188 C 37.914062 100.117188 37.945312 100.054688 37.964844 100.027344 C 38.070312 99.886719 38.15625 99.734375 38.226562 99.570312 C 38.269531 99.464844 38.308594 99.359375 38.34375 99.253906 C 38.789062 97.289062 39.070312 95.300781 39.183594 93.289062 C 39.351562 91.425781 39.492188 89.207031 40.320312 87.429688 C 40.429688 87.207031 40.558594 86.996094 40.707031 86.796875 C 41 86.386719 41.390625 86.121094 41.878906 86.003906 C 43.894531 89.582031 44.984375 94.550781 47.921875 97.328125 C 53.03125 99.03125 55.9375 102.890625 60.796875 97.941406 C 70.855469 104.320312 84.765625 102.785156 93.070312 94.132812 C 93.253906 93.925781 93.4375 93.71875 93.613281 93.503906 C 95.050781 94.714844 96.636719 95.679688 98.367188 96.410156 C 108.605469 102.144531 119.207031 102.808594 127.867188 93.871094 C 128.121094 93.667969 128.230469 93.402344 128.1875 93.078125 Z M 123.886719 84.890625 C 124.574219 85.675781 124.804688 86.769531 125.101562 87.75 L 119.34375 85.339844 C 119.277344 85.027344 119.195312 84.707031 119.117188 84.398438 C 118.964844 83.824219 118.808594 83.25 118.609375 82.679688 Z M 110.121094 63.757812 C 109.902344 63.988281 109.671875 64.265625 109.46875 64.523438 C 109.46875 64.523438 109.46875 64.523438 109.457031 64.523438 C 109.1875 64.875 108.960938 65.210938 108.734375 65.5625 L 102.597656 63 C 103.082031 62.265625 103.65625 61.609375 104.324219 61.035156 L 110.332031 63.558594 Z M 100.78125 73.511719 C 100.582031 72.65625 100.472656 71.785156 100.453125 70.902344 L 106.476562 73.429688 C 106.453125 74.351562 106.511719 75.269531 106.65625 76.179688 L 100.84375 73.746094 C 100.84375 73.746094 100.78125 73.511719 100.78125 73.511719 Z M 100.46875 69.773438 C 100.480469 69.460938 100.519531 69.148438 100.542969 68.855469 C 100.609375 68.308594 100.703125 67.769531 100.832031 67.234375 L 106.972656 69.8125 C 106.761719 70.640625 106.617188 71.484375 106.542969 72.335938 Z M 101.515625 75.578125 C 101.445312 75.417969 101.371094 75.257812 101.304688 75.089844 L 106.914062 77.445312 C 107.125 78.261719 107.421875 79.050781 107.804688 79.804688 C 106.742188 79.613281 105.726562 79.273438 104.765625 78.785156 C 104.488281 78.652344 104.222656 78.5 103.96875 78.328125 C 103.472656 77.996094 103.019531 77.613281 102.613281 77.179688 L 102.601562 77.15625 C 102.164062 76.683594 101.800781 76.15625 101.515625 75.578125 Z M 107.589844 67.875 C 107.472656 68.175781 107.375 68.457031 107.261719 68.792969 L 101.113281 66.203125 C 101.359375 65.410156 101.675781 64.644531 102.066406 63.910156 L 108.21875 66.496094 C 107.996094 66.925781 107.765625 67.410156 107.589844 67.867188 Z M 113.503906 61.277344 C 112.679688 61.703125 111.902344 62.199219 111.175781 62.773438 L 105.304688 60.304688 C 105.679688 60.050781 106.121094 59.816406 106.511719 59.585938 C 107.078125 59.308594 107.601562 59.058594 108.167969 58.828125 L 113.734375 61.15625 C 113.652344 61.191406 113.578125 61.234375 113.503906 61.277344 Z M 118.226562 59.332031 C 117.148438 59.707031 116.058594 60.09375 115.011719 60.554688 L 109.550781 58.257812 C 110.699219 57.875 111.714844 57.414062 112.878906 57.175781 C 113.015625 56.796875 118.1875 59.273438 118.386719 59.269531 Z M 122.742188 57.34375 C 122.742188 57.359375 122.726562 57.386719 122.71875 57.398438 C 122.710938 57.40625 122.71875 57.398438 122.71875 57.410156 C 122.628906 57.597656 122.53125 57.777344 122.421875 57.953125 C 122.371094 58.023438 122.320312 58.09375 122.261719 58.160156 L 122.234375 58.179688 C 122.207031 58.195312 122.179688 58.207031 122.152344 58.226562 C 120.34375 59.539062 116.578125 57.285156 114.898438 56.65625 C 114.976562 56.628906 115.054688 56.59375 115.128906 56.550781 C 115.863281 56.21875 116.277344 55.429688 116.613281 54.6875 L 122.773438 57.28125 Z M 119.105469 46.878906 C 119.121094 46.742188 119.140625 46.566406 119.144531 46.441406 C 119.144531 46.441406 119.144531 46.441406 119.144531 46.425781 C 119.160156 46.207031 119.160156 45.988281 119.144531 45.769531 C 119.3125 45.847656 124.5 47.992188 124.5 48.050781 C 124.621094 48.125 124.730469 48.214844 124.828125 48.3125 C 125.109375 48.65625 125.226562 49.050781 125.171875 49.492188 L 119.09375 46.941406 C 119.101562 46.925781 119.105469 46.898438 119.109375 46.878906 Z M 118.160156 50.273438 C 118.296875 49.910156 118.445312 49.484375 118.5625 49.128906 C 118.679688 48.769531 118.789062 48.355469 118.890625 48.007812 L 125.027344 50.566406 C 124.828125 51.378906 124.582031 52.171875 124.289062 52.953125 L 118.128906 50.367188 C 118.136719 50.335938 118.148438 50.304688 118.160156 50.273438 Z M 117.667969 51.652344 C 117.699219 51.558594 117.738281 51.441406 117.773438 51.347656 L 123.933594 53.929688 C 123.6875 54.617188 123.398438 55.605469 123.160156 56.300781 L 117 53.71875 C 117.242188 53.039062 117.449219 52.332031 117.667969 51.65625 Z M 90.894531 49.957031 C 91.167969 50.074219 91.421875 50.203125 91.679688 50.316406 C 92.261719 50.605469 92.820312 50.941406 93.347656 51.316406 C 93.671875 51.550781 93.976562 51.804688 94.265625 52.082031 C 94.015625 52.398438 93.765625 52.726562 93.519531 53.0625 L 90.328125 51.726562 C 90.058594 50.835938 89.664062 50.003906 89.152344 49.226562 Z M 91.542969 56.0625 L 90.71875 55.714844 C 90.8125 54.800781 90.78125 53.890625 90.632812 52.988281 L 92.898438 53.9375 C 92.429688 54.625 91.972656 55.328125 91.542969 56.0625 Z M 89.871094 59.183594 L 89.804688 59.160156 C 89.992188 58.726562 90.15625 58.28125 90.289062 57.832031 C 90.394531 57.492188 90.488281 57.125 90.554688 56.78125 L 91.015625 56.976562 C 90.609375 57.695312 90.226562 58.429688 89.871094 59.183594 Z M 89.238281 60.347656 C 89.277344 60.273438 89.320312 60.195312 89.363281 60.121094 L 89.421875 60.144531 C 89.082031 60.898438 88.761719 61.664062 88.464844 62.441406 L 88.066406 62.269531 C 88.488281 61.652344 88.878906 61.011719 89.226562 60.347656 Z M 87.34375 65.78125 L 85.8125 65.136719 C 86.390625 64.492188 86.929688 63.824219 87.449219 63.132812 L 88.097656 63.417969 C 87.820312 64.195312 87.566406 64.984375 87.332031 65.78125 Z M 86.964844 67.21875 C 86.734375 67.117188 84.96875 66.371094 84.765625 66.300781 C 84.871094 66.1875 84.972656 66.070312 85.074219 65.960938 L 87.070312 66.792969 C 87.023438 66.9375 86.988281 67.074219 86.953125 67.21875 Z M 56.90625 69.121094 L 54.609375 68.15625 C 54.167969 67.0625 53.730469 65.988281 53.269531 64.898438 L 56.867188 66.398438 C 56.875 67.316406 56.886719 68.21875 56.902344 69.121094 Z M 56.980469 72.976562 L 56.433594 72.746094 C 56.011719 71.671875 55.585938 70.59375 55.152344 69.519531 L 56.921875 70.257812 C 56.933594 71.164062 56.953125 72.070312 56.972656 72.976562 Z M 57.003906 74.210938 L 56.960938 74.101562 L 57 74.121094 C 56.996094 74.148438 56.996094 74.175781 57 74.203125 Z M 56.714844 62.507812 C 56.988281 63.367188 56.777344 64.34375 56.859375 65.261719 L 52.6875 63.519531 C 52.226562 62.425781 51.769531 61.328125 51.285156 60.238281 Z M 54.621094 57.800781 C 55.125 58.910156 55.617188 60.015625 56.101562 61.113281 L 50.679688 58.851562 C 50.199219 57.746094 49.714844 56.652344 49.226562 55.550781 Z M 52.449219 53.066406 C 52.96875 54.183594 53.488281 55.296875 53.988281 56.402344 L 48.605469 54.144531 C 48.101562 53.035156 47.597656 51.929688 47.085938 50.816406 Z M 49.820312 47.523438 C 50.476562 48.898438 51.140625 50.289062 51.785156 51.652344 L 46.429688 49.421875 C 45.796875 48.042969 45.152344 46.667969 44.496094 45.289062 Z M 26.925781 98.015625 L 25.890625 97.585938 C 26.769531 97.585938 27.660156 97.671875 28.523438 97.570312 L 31.855469 98.96875 C 30.144531 98.84375 28.261719 98.582031 26.925781 98.015625 Z M 36.757812 98.140625 C 36.722656 98.398438 36.652344 98.648438 36.550781 98.890625 C 36.539062 98.90625 36.527344 98.921875 36.519531 98.941406 C 35.335938 99.757812 31.011719 97.335938 29.898438 96.988281 C 30.550781 96.398438 30.648438 95.53125 30.796875 94.671875 L 36.914062 97.234375 C 36.855469 97.582031 36.808594 97.875 36.757812 98.140625 Z M 37.328125 93.957031 C 37.253906 94.839844 37.207031 95.429688 37.082031 96.195312 L 30.964844 93.628906 C 31.121094 92.78125 31.226562 91.929688 31.28125 91.070312 L 37.359375 93.621094 Z M 37.714844 90.125 C 37.59375 90.898438 37.503906 91.773438 37.441406 92.515625 L 31.375 89.972656 C 31.4375 89.117188 31.515625 88.242188 31.640625 87.386719 L 37.75 89.949219 C 37.738281 90.003906 37.726562 90.066406 37.722656 90.125 Z M 38.722656 86.589844 C 38.371094 87.332031 38.113281 88.105469 37.949219 88.90625 L 31.820312 86.328125 C 31.902344 85.925781 31.988281 85.5625 32.085938 85.234375 C 32.214844 84.792969 32.382812 84.367188 32.59375 83.957031 L 38.753906 86.539062 C 38.746094 86.558594 38.734375 86.574219 38.722656 86.589844 Z M 41.054688 84.351562 C 40.351562 84.59375 39.777344 85.015625 39.332031 85.609375 L 39.3125 85.636719 L 33.230469 83.09375 C 34.148438 82.40625 35.480469 82.40625 36.566406 82.242188 C 37.355469 82.582031 40.097656 83.730469 40.925781 84.066406 C 40.972656 84.15625 41.023438 84.238281 41.074219 84.332031 C 41.066406 84.328125 41.058594 84.332031 41.054688 84.339844 Z M 38.453125 81.894531 C 38.707031 81.84375 39.039062 81.75 39.28125 81.710938 C 39.480469 81.9375 39.671875 82.226562 39.871094 82.492188 C 39.472656 82.328125 38.851562 82.066406 38.453125 81.894531 Z M 58.480469 97.375 L 57.996094 97.730469 C 57.449219 98.136719 56.871094 98.496094 56.261719 98.804688 L 50.515625 96.390625 C 51.203125 95.945312 51.929688 95.398438 52.613281 94.886719 L 58.507812 97.359375 Z M 53.664062 94.195312 C 54.464844 93.734375 55.648438 93.179688 56.535156 92.703125 L 58.058594 93.34375 C 58.289062 94.554688 58.675781 95.683594 59.296875 96.554688 Z M 57.851562 91.996094 C 57.851562 92.039062 57.851562 92.082031 57.863281 92.125 L 57.722656 92.0625 C 57.769531 92.046875 57.8125 92.023438 57.851562 91.996094 Z M 74.0625 100.3125 C 71.6875 100.617188 69.40625 99.671875 67.382812 98.753906 C 69.164062 98.554688 70.914062 98.21875 72.640625 97.742188 L 77.636719 99.832031 C 76.457031 100.078125 75.265625 100.238281 74.066406 100.3125 Z M 79.394531 99.425781 L 74.25 97.269531 C 75.429688 96.914062 76.589844 96.5 77.726562 96.023438 L 83.148438 98.304688 C 82.296875 98.59375 80.960938 99.03125 79.398438 99.425781 Z M 86.777344 96.71875 C 86.0625 97.109375 85.328125 97.460938 84.570312 97.765625 L 79.015625 95.4375 L 79.136719 95.378906 C 79.527344 95.183594 79.878906 94.992188 80.285156 94.761719 C 80.742188 94.484375 81.269531 94.160156 81.707031 93.871094 L 87.507812 96.300781 C 87.253906 96.457031 87.003906 96.597656 86.78125 96.71875 Z M 90.539062 94.074219 C 89.914062 94.625 89.257812 95.136719 88.578125 95.613281 L 82.691406 93.144531 C 83.417969 92.582031 84.109375 91.976562 84.757812 91.324219 L 90.773438 93.847656 C 90.707031 93.933594 90.632812 93.996094 90.539062 94.078125 Z M 91.773438 92.847656 C 91.714844 92.914062 91.65625 92.988281 91.589844 93.050781 L 85.523438 90.507812 C 86.089844 89.863281 86.605469 89.179688 87.074219 88.464844 L 90.257812 89.804688 C 90.878906 90.667969 91.570312 91.476562 92.320312 92.230469 C 92.140625 92.441406 91.960938 92.648438 91.777344 92.851562 Z M 87.664062 87.507812 C 87.769531 87.324219 87.894531 87.101562 87.996094 86.910156 C 88.0625 86.773438 88.171875 86.5625 88.238281 86.425781 C 88.535156 87.050781 88.863281 87.652344 89.210938 88.238281 L 87.625 87.570312 C 87.640625 87.546875 87.652344 87.53125 87.664062 87.507812 Z M 102.457031 95.652344 C 95.050781 94.476562 89.554688 87.777344 88.191406 80.609375 C 87.746094 83.535156 86.625 86.171875 84.824219 88.519531 C 83.660156 89.996094 82.308594 91.265625 80.757812 92.328125 C 74.195312 96.5 57.769531 101.910156 59.421875 88.59375 C 57.394531 90.746094 54.015625 91.605469 51.683594 93.324219 C 51.683594 93.324219 51.671875 93.324219 51.664062 93.324219 C 50.652344 94.074219 49.640625 94.878906 48.515625 95.472656 C 44.800781 91.425781 44.25 78.980469 37.332031 80.285156 C 35.359375 80.675781 32.816406 80.496094 31.492188 82.308594 C 31.480469 82.324219 31.46875 82.339844 31.457031 82.355469 C 31.25 82.632812 31.070312 82.925781 30.914062 83.238281 C 30.734375 83.589844 30.582031 83.957031 30.457031 84.332031 C 29.890625 86.039062 29.71875 87.914062 29.574219 89.710938 C 29.394531 91.730469 29.28125 93.792969 28.679688 95.652344 C 28.589844 95.707031 28.492188 95.738281 28.386719 95.75 C 25.175781 95.535156 18.683594 96.457031 17.496094 92.929688 C 19.863281 77.207031 21.304688 61.175781 25.5 45.792969 C 30.929688 45.539062 36.6875 45.269531 42.121094 44.511719 C 48.546875 57.589844 53.898438 71.160156 59.214844 84.71875 C 59.1875 72.273438 57.351562 58.558594 59.132812 46.640625 C 66.945312 45.117188 76.59375 43.960938 83.972656 47.101562 C 85.140625 47.667969 86.160156 48.4375 87.03125 49.410156 C 87.472656 49.929688 87.847656 50.5 88.152344 51.113281 C 89.410156 53.648438 89.09375 56.679688 87.808594 59.144531 C 86.988281 62.765625 78.351562 66.976562 85.085938 68.453125 C 85.097656 68.464844 85.113281 68.472656 85.128906 68.472656 C 85.492188 68.714844 85.824219 68.988281 86.125 69.300781 C 86.929688 70.191406 87.503906 71.214844 87.84375 72.367188 C 89.058594 58.648438 101.429688 39.660156 117.035156 45.0625 C 117.5625 45.710938 117.335938 46.648438 117.171875 47.398438 C 116.664062 49.289062 115.875 51.191406 115.304688 53.085938 C 115.273438 53.183594 115.214844 53.316406 115.179688 53.429688 C 114.867188 54.949219 113.671875 55.289062 112.332031 55.433594 C 110.03125 56.070312 107.8125 56.921875 105.675781 57.984375 C 104.976562 58.351562 104.308594 58.765625 103.671875 59.234375 C 103.429688 59.414062 103.179688 59.617188 102.964844 59.816406 C 102.480469 60.25 102.042969 60.726562 101.652344 61.246094 C 101.457031 61.488281 101.289062 61.730469 101.117188 61.984375 C 100.5625 62.828125 100.101562 63.726562 99.738281 64.671875 C 99.328125 65.714844 99.039062 66.789062 98.863281 67.894531 C 98.351562 71.109375 98.691406 74.695312 100.539062 77.4375 C 101.078125 78.222656 101.726562 78.90625 102.488281 79.480469 L 102.511719 79.496094 C 102.515625 79.5 102.519531 79.5 102.523438 79.496094 C 102.542969 79.515625 102.5625 79.53125 102.585938 79.546875 C 106.382812 82.515625 111.671875 81.738281 116.082031 81.632812 C 116.136719 81.691406 116.1875 81.753906 116.234375 81.820312 C 116.777344 82.636719 117.101562 83.84375 117.359375 84.828125 C 117.457031 85.230469 117.558594 85.644531 117.648438 86.042969 C 117.671875 86.136719 117.703125 86.273438 117.730469 86.398438 C 117.960938 87.429688 118.175781 88.539062 118.433594 89.546875 C 117.554688 90.324219 116.558594 91.113281 115.613281 91.796875 L 115.597656 91.796875 C 112.765625 93.84375 109.492188 95.46875 105.976562 95.765625 C 104.800781 95.875 103.625 95.835938 102.457031 95.652344 Z M 114.171875 99.023438 C 111.359375 99.367188 108.546875 98.757812 105.984375 97.585938 C 106.039062 97.585938 106.09375 97.570312 106.148438 97.570312 C 106.378906 97.550781 106.597656 97.519531 106.816406 97.496094 C 107.710938 97.382812 108.589844 97.195312 109.453125 96.933594 C 109.453125 96.933594 114.367188 99 114.367188 99 Z M 119.574219 97.417969 C 118.5 97.933594 117.386719 98.34375 116.234375 98.648438 L 110.957031 96.433594 C 111.996094 96.03125 113.003906 95.554688 113.972656 95.003906 L 119.640625 97.375 Z M 123.3125 95.1875 C 122.519531 95.75 121.695312 96.273438 120.847656 96.746094 L 115.085938 94.332031 C 115.351562 94.171875 115.691406 93.953125 115.953125 93.777344 C 115.953125 93.777344 115.953125 93.777344 115.964844 93.777344 C 115.976562 93.777344 115.964844 93.777344 115.964844 93.777344 C 116.195312 93.625 116.425781 93.460938 116.652344 93.300781 C 116.9375 93.09375 117.214844 92.886719 117.492188 92.679688 L 123.386719 95.148438 Z M 125.445312 93.542969 C 125.105469 93.828125 124.730469 94.121094 124.375 94.402344 L 118.445312 91.914062 C 118.445312 91.914062 118.445312 91.914062 118.457031 91.914062 C 118.863281 91.578125 119.25 91.265625 119.632812 90.917969 L 125.601562 93.425781 Z M 120.210938 89.195312 C 120 88.367188 119.808594 87.453125 119.628906 86.589844 L 125.417969 89.023438 C 125.617188 89.878906 125.792969 90.769531 125.988281 91.617188 Z M 120.210938 89.195312 " fill-opacity="1" fill-rule="nonzero"/></g><path fill="#ffffff" d="M 68.09375 56.476562 C 68.09375 56.558594 68.09375 56.644531 68.09375 56.726562 C 68.144531 58.074219 68.230469 59.503906 68.289062 60.816406 C 68.292969 60.882812 68.300781 60.949219 68.3125 61.011719 C 69.8125 64.59375 76.203125 62.820312 77.605469 59.75 C 78.625 58.027344 77.605469 56.1875 75.675781 55.617188 C 73.421875 54.929688 70.800781 54.699219 68.496094 55.1875 L 68.484375 55.1875 C 68.230469 55.367188 68.097656 55.613281 68.09375 55.921875 C 68.085938 56.109375 68.089844 56.304688 68.09375 56.476562 Z M 71.972656 61.121094 C 71.3125 61.164062 70.691406 61.035156 70.101562 60.734375 C 70.042969 60.378906 70.066406 60.046875 70.042969 59.660156 L 73.121094 60.957031 C 72.742188 61.046875 72.359375 61.101562 71.972656 61.121094 Z M 74.066406 57.027344 C 74.398438 57.097656 74.730469 57.1875 75.050781 57.296875 C 75.460938 57.417969 75.8125 57.636719 76.101562 57.945312 L 73.808594 56.984375 C 73.875 56.992188 73.957031 57.011719 74.066406 57.035156 Z M 75.503906 59.648438 C 75.25 59.984375 74.933594 60.246094 74.554688 60.433594 L 69.988281 58.515625 C 69.960938 58.125 69.941406 57.71875 69.925781 57.320312 Z M 75.503906 59.648438 " fill-opacity="1" fill-rule="nonzero"/><path fill="#ffffff" d="M 78.089844 76.984375 C 78.035156 76.714844 77.957031 76.453125 77.859375 76.195312 C 77.304688 73.257812 70.359375 71.242188 68.5625 73.121094 C 68.527344 73.289062 68.523438 73.441406 68.5 73.625 C 68.222656 76.078125 67.582031 78.601562 68.085938 81.0625 C 69.460938 85.742188 76.152344 82.542969 77.722656 79.5625 C 78.132812 78.746094 78.253906 77.886719 78.089844 76.984375 Z M 70.554688 81.558594 C 70.496094 81.535156 70.441406 81.503906 70.386719 81.46875 L 70.746094 81.621094 C 70.683594 81.609375 70.617188 81.585938 70.554688 81.558594 Z M 75.359375 79.742188 C 74.558594 80.457031 73.683594 80.824219 72.648438 81.28125 L 69.742188 80.066406 C 69.699219 79.671875 69.691406 79.273438 69.714844 78.875 C 69.714844 78.402344 69.765625 77.867188 69.8125 77.394531 L 75.375 79.730469 Z M 76.277344 77.261719 C 76.203125 77.792969 76.117188 78.339844 76.046875 78.867188 L 69.941406 76.304688 C 70.015625 75.742188 70.101562 75.179688 70.167969 74.625 C 70.167969 74.625 76.277344 77.1875 76.28125 77.183594 C 76.277344 77.210938 76.277344 77.234375 76.28125 77.261719 Z M 76.277344 77.261719 " fill-opacity="1" fill-rule="nonzero"/></svg>